<?xml version="1.0" encoding="utf-8"?>
<!-- Generator: Adobe Illustrator 16.0.0, SVG Export Plug-In . SVG Version: 6.00 Build 0)  -->
<!DOCTYPE svg PUBLIC "-//W3C//DTD SVG 1.1//EN" "http://www.w3.org/Graphics/SVG/1.1/DTD/svg11.dtd">
<svg version="1.1" id="Layer_1" xmlns="http://www.w3.org/2000/svg" xmlns:xlink="http://www.w3.org/1999/xlink" x="0px" y="0px"
	 width="286.964px" height="48.994px" viewBox="0 0 286.964 48.994" enable-background="new 0 0 286.964 48.994"
	 xml:space="preserve">
<g>
	<text transform="matrix(1.0963 0 0 1 122.6982 213.5732)" fill="#FFFFFF" font-family="'ArialRoundedMTBold'" font-size="35.6747">MEETING</text>
</g>
<rect x="-0.161" fill="#FF0000" width="287.286" height="48.994"/>
<g>
	<g>
		<g>
			<g>
				<path fill="#0674B7" stroke="#0674B7" stroke-width="3" stroke-miterlimit="10" d="M35.206,29.147h-6.748h1.043l-1.024-0.233
					c-0.002,0.008-0.019,0.089-0.019,0.233h1.043l-1.024-0.233c0,0.003-0.014,0.063-0.072,0.198l-0.004,0.01l-0.006,0.016
					c-0.021,0.05-0.145,0.308-0.549,0.735l-0.012,0.012l-0.019,0.021c-0.104,0.111-0.352,0.334-0.97,0.603l0.03-0.015
					c-0.325,0.14-0.929,0.305-1.965,0.305c-0.909,0.001-1.606-0.086-2.093-0.203l0.006,0.003c-0.458-0.106-0.766-0.245-0.999-0.385
					l-0.017-0.01l-0.01-0.007c-0.196-0.117-0.46-0.321-0.783-0.695l-5.131,4.383l5.178-4.328c-0.298-0.358-0.552-0.747-0.787-1.236
					l0.002,0.002c-0.227-0.475-0.412-1.014-0.542-1.628l-0.003-0.021l0.005,0.027c-0.13-0.623-0.208-1.337-0.208-2.167
					c0-1.386,0.201-2.401,0.468-3.126L20,21.395l0.004-0.01c0.297-0.803,0.637-1.316,1.057-1.76l-0.011,0.011
					c0.478-0.485,0.916-0.783,1.544-1.045l-0.023,0.01c0.665-0.264,1.339-0.402,2.203-0.407c1.153,0.009,1.817,0.206,2.365,0.48
					l0.005,0.003c0.818,0.422,1.101,0.748,1.22,0.914l-0.014-0.02l0.148,0.232l0.015,0.029l0.045-0.021l-0.046,0.02l0,0.001
					l0.045-0.021l-0.046,0.02l1.746-0.744h-1.866c-0.002,0.424,0.105,0.713,0.12,0.744l1.746-0.744h-1.866h4.538l-4.208-1.693
					c-0.225,0.55-0.335,1.185-0.331,1.693h4.538l-4.208-1.693l3.977,1.601l-3.188-2.879c-0.254,0.278-0.568,0.725-0.79,1.278
					l3.977,1.601l-3.188-2.879l0.041-0.045l3.425,3.15l-1.899-4.237c-0.659,0.291-1.198,0.725-1.526,1.087l3.425,3.15l-1.899-4.237
					l1.948,4.344v-4.768c-0.559-0.005-1.293,0.125-1.948,0.424l1.948,4.344v-4.768v3.945l1.192-3.744
					c-0.574-0.181-0.972-0.199-1.192-0.201v3.945l1.192-3.744l-1.572,4.937l3.551-3.756c-0.659-0.629-1.415-1.005-1.979-1.181
					l-1.572,4.937l3.551-3.756l0.013,0.012L34.21,18.06l2.416-1.641c-0.011-0.01-0.089-0.149-0.415-0.465L34.21,18.06l2.416-1.641
					l-0.047-0.075l-0.13-0.238l-0.009-0.019l-0.013-0.023c-1.03-1.931-2.443-3.777-4.443-5.173l-0.02-0.014l-0.021-0.015
					c-1.07-0.735-2.275-1.286-3.495-1.626c-1.221-0.343-2.451-0.484-3.639-0.484c-1.899-0.004-3.907,0.381-5.738,1.262
					c-1.833,0.872-3.414,2.216-4.587,3.733l-0.005,0.006c-1.242,1.596-2.076,3.416-2.579,5.263
					c-0.503,1.853-0.702,3.744-0.704,5.687c0.007,2.584,0.34,5.091,1.357,7.527l-0.013-0.03c0.483,1.16,1.123,2.292,1.948,3.325
					c0.822,1.032,1.835,1.958,2.969,2.682l0.012,0.008l0.011,0.007c1.073,0.684,2.262,1.207,3.48,1.537
					c1.22,0.335,2.464,0.482,3.678,0.482c1.292,0,2.623-0.161,3.934-0.549c1.309-0.386,2.59-0.999,3.717-1.814l0.007-0.004
					c1.125-0.809,2.107-1.817,2.885-2.912c0.781-1.098,1.367-2.273,1.801-3.47l0.042-0.11l0.036-0.111l0.013-0.041l-1.688-0.68
					l1.435,1.092c0.192-0.253,0.251-0.407,0.253-0.412l-1.688-0.68l1.435,1.092l0.007-0.007l-4.191-3.182l1.997,4.873
					c0.747-0.289,1.629-0.927,2.194-1.691l-4.191-3.182l1.997,4.873l-1.642-4.006v4.353c0.312-0.002,0.886-0.039,1.642-0.347
					l-1.642-4.006v4.353v-4.519l-1.709,4.176c0.6,0.249,1.235,0.347,1.709,0.343v-4.519l-1.709,4.176l1.716-4.19l-3.19,3.223
					c0.342,0.344,0.873,0.725,1.475,0.968l1.716-4.19l-3.19,3.223l0.021,0.02l0.021,0.021l3.227-3.316l-4.274,1.756
					c0.248,0.617,0.656,1.186,1.047,1.561l3.227-3.316l-4.274,1.756l4.127-1.693h-4.471c-0.004,0.452,0.087,1.079,0.344,1.693
					l4.127-1.693h-4.471H35.206h6.749c0.002-1.084-0.196-2.291-0.668-3.433c-0.466-1.146-1.198-2.189-2.024-2.986l0.04,0.041
					c-0.775-0.773-1.783-1.476-2.906-1.932c-1.12-0.463-2.322-0.667-3.406-0.663c-1.02,0.001-2.207,0.146-3.475,0.662
					c-1.261,0.502-2.559,1.453-3.441,2.637l0.006-0.008c-0.899,1.186-1.46,2.418-1.856,3.629l6.417,2.087l-6.341-2.311l-0.094,0.224
					l-0.024,0.041l0.719,0.473l-0.494-0.686l-0.225,0.213l0.719,0.473l-0.494-0.686l0.006-0.005l0.667,0.929l-0.324-1.103
					l-0.343,0.174l0.667,0.929l-0.324-1.103l0.138,0.472l-0.101-0.48l-0.037,0.009l0.138,0.472l-0.101-0.48l0.007,0.035
					l-0.006-0.037l-0.001,0.002l0.007,0.035l-0.006-0.037l-0.156,0.01l-0.126-0.007l-0.011-0.001l-0.111,0.614l0.331-0.518
					l-0.219-0.097l-0.111,0.614l0.331-0.518l0.024,0.014l-0.64,0.998l0.931-0.742l-0.291-0.256l-0.64,0.998l0.931-0.742
					l-0.407,0.323l0.43-0.292l-0.023-0.031l-0.407,0.323l0.43-0.292l-0.063,0.044l0.065-0.042l-0.002-0.002l-0.063,0.044
					l0.065-0.042L25,27.007l-0.005-0.011l-0.007-0.017c-0.083-0.175-0.302-0.936-0.295-2.277c-0.001-0.997,0.11-1.711,0.226-2.127
					c0.118-0.423,0.215-0.537,0.217-0.54l-0.005,0.007l0.016-0.02l-0.625-0.605l0.322,0.795c0.136-0.049,0.294-0.172,0.304-0.189
					l-0.625-0.605l0.322,0.795l-0.257-0.633l0.125,0.676l0.132-0.043l-0.257-0.633l0.125,0.676l-0.009-0.049l0.006,0.049h0.003
					l-0.009-0.049l0.006,0.049l0.1-0.006l0.089,0.006l0.175-1.359l-0.757,1.104c0.256,0.185,0.577,0.262,0.582,0.256l0.175-1.359
					l-0.757,1.104l-0.041-0.029l0.472-0.679l-0.565,0.606l0.093,0.072l0.472-0.679l-0.565,0.606l0.104-0.111l-0.109,0.106
					l0.004,0.005l0.104-0.111l-0.109,0.106c0.004,0.004,0.144,0.155,0.34,0.525l-0.021-0.042c0.29,0.551,0.595,1.082,0.964,1.626
					c0.374,0.544,0.797,1.107,1.45,1.734l0.013,0.012c0.983,0.935,2.145,1.542,3.2,1.874c1.063,0.338,2.031,0.433,2.902,0.436
					c1.146,0.006,2.42-0.236,3.573-0.758c1.157-0.514,2.149-1.283,2.889-2.092l0.02-0.023l0.021-0.021
					c0.664-0.731,1.288-1.661,1.716-2.729c0.433-1.065,0.648-2.249,0.644-3.346c0.002-1.437-0.293-2.811-0.749-4.02
					c-0.457-1.216-1.065-2.285-1.75-3.261l-0.009-0.015l-0.004-0.006c-1.579-2.231-3.732-3.928-6.09-5.129l0.006,0.003
					c-2.638-1.358-5.594-1.971-8.52-1.964c-2.476-0.004-4.949,0.457-7.237,1.38l-0.009,0.004l-0.015,0.006
					c-2.324,0.938-4.449,2.38-6.173,4.175l-0.012,0.012h0.001c-1.773,1.838-3.132,4.076-4.007,6.494l0.007-0.021
					c-0.914,2.485-1.298,5.113-1.298,7.786c0,1.671,0.157,3.321,0.495,4.934l0.001,0.007c0.338,1.607,0.857,3.173,1.566,4.658
					l0.002,0.006c0.704,1.474,1.583,2.848,2.61,4.074l0.023,0.027l0.023,0.026c1.166,1.367,2.541,2.573,4.115,3.517l-0.028-0.02
					c1.536,0.931,3.208,1.584,4.92,1.984h0.006c1.691,0.393,3.406,0.549,5.146,0.551c2.465,0,4.929-0.397,7.241-1.377l0.016-0.009
					l0.015-0.004c2.003-0.862,3.924-2.098,5.508-3.8l-0.031,0.035c1.296-1.373,2.41-2.949,3.177-4.769l-0.011,0.025
					c0.677-1.59,1.13-3.354,1.132-5.252H35.206z"/>
			</g>
			<g>
				<path fill="#0674B7" stroke="#0674B7" stroke-width="3" stroke-miterlimit="10" d="M45.397,34.43h6.749v-9.988l-7.216-11.221
					l-5.676,3.65l5.725-3.574c-0.461-0.729-0.742-1.261-0.737-1.266l-0.001-0.004l-2.347,1.083l2.491-0.661
					c-0.067-0.25-0.125-0.378-0.145-0.422l-2.347,1.083l2.491-0.661l-4.325,1.147h4.468c0-0.519-0.077-0.898-0.143-1.147
					l-4.325,1.147h4.468h-4.758l4.339,1.944c0.285-0.624,0.424-1.355,0.419-1.944h-4.758l4.339,1.944L40,13.701l3.111,3.265
					c0.321-0.303,0.716-0.796,0.997-1.425L40,13.701l3.111,3.265l-0.04,0.039L40.03,13.76l1.574,4.155
					c0.555-0.206,1.094-0.556,1.467-0.91L40.03,13.76l1.574,4.155l-1.473-3.888v4.166c0.376,0.003,0.917-0.066,1.473-0.278
					l-1.473-3.888v4.166v-4.147l-1.45,3.867c0.649,0.242,1.161,0.28,1.45,0.28v-4.147l-1.45,3.867l1.763-4.701l-3.691,3.397
					c0.535,0.595,1.286,1.072,1.928,1.304l1.763-4.701l-3.691,3.397l-0.038-0.041l1.806-1.634l-1.885,1.54l0.08,0.094l1.806-1.634
					l-1.885,1.54l0.388-0.316l-0.395,0.31l0.007,0.007l0.388-0.316l-0.395,0.31c0.008,0.009,0.128,0.169,0.294,0.421
					c0.169,0.252,0.392,0.602,0.651,1.029l0.009,0.012l10.422,16.978L58.56,17.91l0.03-0.047c0.259-0.436,0.483-0.801,0.677-1.117
					l0.005-0.009l0.01-0.017l0.035-0.054l-0.229-0.164l0.214,0.183l0.015-0.019l-0.229-0.164l0.214,0.183l0.02-0.024l0.019-0.024
					L56.1,13.935l1.917,3.739c0.672-0.345,1.111-0.776,1.324-1.037L56.1,13.935l1.917,3.739l-0.012,0.007l-2.02-3.958v4.471
					c0.395,0.006,1.189-0.086,2.02-0.513l-2.02-3.958v4.471v-4.357l-1.593,4.047c0.587,0.233,1.174,0.313,1.593,0.311v-4.357
					l-1.593,4.047l1.677-4.259l-3.203,3.275c0.38,0.378,0.938,0.756,1.525,0.983l1.677-4.259l-3.203,3.275l0.022,0.021l0.019,0.019
					l3.19-3.318l-4.203,1.852c0.277,0.636,0.676,1.147,1.013,1.467l3.19-3.318l-4.203,1.852l4.418-1.946h-4.831
					c-0.005,0.591,0.131,1.316,0.413,1.946l4.418-1.946h-4.831h3.643l-3.292-1.592c-0.19,0.381-0.355,0.975-0.351,1.592h3.643
					l-3.292-1.592l0.009-0.02l0.572,0.279l-0.567-0.29l-0.005,0.011l0.572,0.279l-0.567-0.29c0,0.011-0.26,0.465-0.679,1.089
					l-0.02,0.032l-7.404,11.401V34.43h1.118l-1.105-0.145l-0.012,0.145h1.118l-1.105-0.145l3.19,0.421l-2.955-1.245
					c-0.162,0.386-0.215,0.672-0.235,0.824l3.19,0.421l-2.955-1.245l4.056,1.709l-3.219-2.993c-0.396,0.425-0.678,0.902-0.837,1.284
					l4.056,1.709l-3.219-2.993l-0.007,0.007l3.204,2.969l-1.694-4.018c-0.6,0.247-1.155,0.661-1.51,1.049l3.204,2.969l-1.694-4.018
					l1.608,3.813v-4.15c-0.411-0.004-1.01,0.081-1.608,0.337l1.608,3.813v-4.15v4.075l1.551-3.753
					c-0.609-0.254-1.185-0.323-1.551-0.322v4.075l1.551-3.753l-1.701,4.113l3.283-3.012c-0.38-0.425-0.974-0.855-1.583-1.102
					l-1.701,4.113l3.283-3.012l-3.147,2.885l4.112-1.226c-0.114-0.399-0.407-1.055-0.965-1.659l-3.147,2.885l4.112-1.226
					l-2.645,0.789l2.742-0.349c-0.011-0.091-0.035-0.238-0.097-0.44l-2.645,0.789l2.742-0.349l-1.402,0.181l1.411-0.086
					l-0.009-0.095l-1.402,0.181l1.411-0.086l-0.562,0.034l0.563-0.017l-0.001-0.018l-0.562,0.034l0.563-0.017V34.43H45.397h-6.749
					c0.002,1.025,0.104,2.121,0.458,3.314c0.349,1.182,0.993,2.485,2.02,3.603c0.85,0.935,1.986,1.75,3.208,2.249
					c1.223,0.508,2.482,0.704,3.605,0.701c1.148,0.004,2.424-0.211,3.634-0.723c1.211-0.506,2.316-1.306,3.15-2.216l-0.007,0.008
					c1.014-1.087,1.684-2.385,2.046-3.577c0.368-1.207,0.477-2.322,0.479-3.359v-6.007l5.207-8.018l-5.66-3.675l5.621,3.736
					c0.608-0.925,1.089-1.676,1.564-2.636l0.01-0.02c0.622-1.276,1-2.774,0.996-4.285c0.004-1.137-0.236-2.38-0.733-3.496
					c-0.491-1.12-1.213-2.083-1.984-2.821l0.041,0.039c-0.808-0.795-1.843-1.486-2.965-1.924c-1.121-0.443-2.292-0.63-3.353-0.627
					c-1.224-0.006-2.709,0.238-4.114,0.96l-0.013,0.005c-1.246,0.64-2.198,1.508-2.882,2.331l0.04-0.048
					c-0.504,0.595-0.921,1.196-1.266,1.762l0.015-0.024c-0.203,0.331-0.462,0.754-0.764,1.259l5.794,3.461l-5.733-3.561
					l-4.757,7.661l5.733,3.559l5.75-3.53l-4.703-7.66l0.011,0.017c-0.404-0.661-0.772-1.24-1.137-1.774
					c-0.374-0.539-0.708-1.01-1.239-1.604l-0.015-0.016L46.685,7.47c-0.899-0.988-2.094-1.765-3.265-2.194
					c-1.178-0.439-2.301-0.577-3.289-0.578c-1.043-0.002-2.195,0.173-3.309,0.596c-1.114,0.418-2.157,1.085-2.981,1.862l-0.02,0.02
					L33.8,7.194c-0.771,0.73-1.504,1.691-2.011,2.826c-0.511,1.131-0.766,2.405-0.76,3.576c0.001,0.878,0.132,1.646,0.309,2.313
					c0.179,0.668,0.403,1.245,0.645,1.771l-0.001-0.002c0.447,0.959,0.928,1.769,1.547,2.766l0.023,0.038l5.097,7.926v6.021H45.397z
					"/>
			</g>
			<g>
				<path fill="#0674B7" stroke="#0674B7" stroke-width="3" stroke-miterlimit="10" d="M66.799,15.713h-6.749v13.273h11.422
					c0.855,0,1.681-0.04,2.522-0.145c0.84-0.105,1.697-0.269,2.635-0.592l-0.006,0.001c1.1-0.376,2.202-0.995,3.126-1.8
					c0.927-0.8,1.661-1.764,2.184-2.727l-5.928-3.227l5.792,3.464c0.95-1.567,1.398-3.432,1.383-5.08
					c0-1.418-0.239-3.085-1.135-4.775c-0.444-0.835-1.055-1.644-1.782-2.314c-0.725-0.675-1.551-1.207-2.371-1.582l0.016,0.008
					c-1.251-0.572-2.399-0.841-3.53-1.019c-1.131-0.171-2.257-0.233-3.438-0.234H60.051v6.748H66.799v6.749h4.142
					c0.668-0.002,1.159,0.042,1.406,0.082l0.138,0.022l0.035,0.009l0.413-1.602l-0.691,1.493c0.195,0.089,0.278,0.107,0.278,0.108
					l0.413-1.602l-0.691,1.493l0.007,0.003l0.008,0.005l1.878-4.087l-3.058,3.292c0.385,0.357,0.814,0.627,1.18,0.795l1.878-4.087
					l-3.058,3.292l3.072-3.308l-4.262,1.518c0.181,0.536,0.604,1.254,1.19,1.79l3.072-3.308l-4.262,1.518l2.831-1.008h-3.032
					c0.002,0.115,0.009,0.464,0.201,1.008l2.831-1.008h-3.032h3.618l-3.089-1.848c-0.374,0.602-0.542,1.385-0.529,1.848h3.618
					l-3.089-1.848l-0.07,0.118l-0.065,0.12l3.261,1.775l-2.423-2.801c-0.399,0.342-0.684,0.738-0.838,1.025l3.261,1.775
					l-2.423-2.801l2.582,2.981l-1.294-3.73c-0.403,0.135-0.895,0.403-1.288,0.749l2.582,2.981l-1.294-3.73L72.197,15.5l0.599,1.719
					l-0.388-1.78l-0.21,0.062l0.599,1.719l-0.388-1.78l0.009,0.041l-0.007-0.041h-0.002l0.009,0.041l-0.007-0.041
					c-0.045,0.011-0.391,0.054-0.937,0.052h-4.674v6.748h6.75v-6.525H66.799v6.749V15.713z M72.106,25.906v-6.747H60.051v20.866
					h12.226c1.267-0.001,2.531-0.107,3.842-0.42c0.981-0.236,1.996-0.597,3-1.159c1.502-0.827,2.968-2.214,3.856-3.888
					c0.906-1.67,1.226-3.456,1.222-5.019c0-1.41-0.249-3.014-1.004-4.584c-0.74-1.569-2.026-2.98-3.428-3.865l-0.007-0.003
					l-0.015-0.01c-1.309-0.832-2.631-1.283-3.892-1.555c-1.267-0.269-2.495-0.363-3.745-0.364V25.906v6.75
					c0.525-0.001,0.85,0.047,0.918,0.064h0.003l0.611-2.095l-1.167,1.824c0.311,0.195,0.512,0.256,0.556,0.271l0.611-2.095
					l-1.167,1.824l-0.019-0.014l2.148-3.333l-3.564,1.719c0.293,0.646,0.91,1.308,1.416,1.614l2.148-3.333l-3.564,1.719l2.659-1.282
					h-2.997c-0.001,0.135,0.026,0.638,0.337,1.282l2.659-1.282h-2.997h2.876l-2.579-1.188c-0.268,0.577-0.3,1.043-0.297,1.188h2.876
					l-2.579-1.188l3.467,1.597l-2.6-2.797c-0.346,0.317-0.674,0.772-0.867,1.2l3.467,1.597l-2.6-2.797l1.816,1.956l-0.739-2.619
					c-0.078,0.021-0.549,0.174-1.077,0.663l1.816,1.956l-0.739-2.619l0.123,0.435l-0.104-0.439l-0.02,0.005l0.123,0.435
					l-0.104-0.439l-0.169,0.023c-0.117,0.012-0.291,0.024-0.514,0.024h-5.477v6.747h6.75v-7.372h-6.75v6.75h5.307V25.906z
					 M72.487,37.123v-6.749h-7.69h-0.001l-0.162,2.71l0.936-2.523c-0.47-0.172-0.724-0.182-0.774-0.187l-0.162,2.71l0.936-2.523
					l-1.619,4.365l3.368-3.19c-0.595-0.632-1.288-1.009-1.749-1.175l-1.619,4.365l3.368-3.19l-0.019-0.018l0.012,0.011l-3.151,2.993
					l4.188-1.255c-0.117-0.402-0.42-1.091-1.037-1.738l-3.151,2.993l4.188-1.255l-2.595,0.779l2.691-0.344
					c-0.011-0.086-0.035-0.23-0.096-0.436l-2.595,0.779l2.691-0.344l-1.264,0.16l1.273-0.074l-0.009-0.086l-1.264,0.16l1.273-0.074
					L68.4,33.991h0.052v-0.003L68.4,33.991h0.052V15.003V15l-2.578-0.153l2.409,0.871c0.154-0.437,0.164-0.673,0.169-0.718
					l-2.578-0.153l2.409,0.871l-4.274-1.545l3.205,3.194c0.583-0.579,0.917-1.224,1.069-1.649l-4.274-1.545l3.205,3.194l0.008-0.006
					l-3.154-3.136l1.333,4.27c0.438-0.132,1.174-0.479,1.82-1.134l-3.154-3.136l1.333,4.27l-0.865-2.77l0.377,2.88
					c0.099-0.013,0.262-0.041,0.488-0.11l-0.865-2.77l0.377,2.88l-0.192-1.466l0.089,1.477l0.103-0.011l-0.192-1.466l0.089,1.477
					l-0.034-0.575l0.016,0.575h0.018l-0.034-0.575l0.016,0.575h0.003h8.152c0.911-0.001,1.61,0.063,2.011,0.132l-0.037-0.007
					l0.09,0.02l0.004-0.016l-0.006,0.013l0.002,0.003l0.004-0.016l-0.006,0.013l0.296-0.706l-0.4,0.652l0.104,0.054l0.296-0.706
					l-0.4,0.652l0.051,0.03l0.055,0.031l0.439-0.744l-0.564,0.657l0.125,0.087l0.439-0.744l-0.564,0.657l0.261-0.303l-0.286,0.28
					l0.025,0.022l0.261-0.303l-0.286,0.28l0.011,0.013l-0.027-0.034l0.549-0.459l-0.672,0.243l0.123,0.216l0.549-0.459l-0.672,0.243
					v-0.003l0.579-0.21h-0.621l0.042,0.21l0.579-0.21h-0.621v0.033l0.361,0.022l-0.353-0.07l-0.008,0.048l0.361,0.022l-0.353-0.07
					l1.337,0.266L75,17.572c-0.139,0.144-0.299,0.492-0.31,0.619l1.337,0.266L75,17.572l0.681,0.585l-0.606-0.664L75,17.572
					l0.681,0.585l-0.606-0.664l0.169,0.188l-0.152-0.201l-0.017,0.014l0.169,0.188l-0.152-0.201
					c-0.007,0.004-0.089,0.066-0.283,0.156l0.79,12.549c0.379,0.119,0.583,0.232,0.639,0.269l0.022,0.012l0.178-0.252l-0.207,0.23
					l0.029,0.021l0.178-0.252l-0.207,0.23l0.85-0.947l-1.166,0.485c0.068,0.178,0.242,0.404,0.316,0.462l0.85-0.947l-1.166,0.485
					l0.787-0.328l-0.842,0.155l0.055,0.173l0.787-0.328l-0.842,0.155l0.075-0.014l-0.075,0.011v0.003l0.075-0.014l-0.075,0.011
					l0.004,0.116l-0.014,0.17l0.011,0.002l-0.01-0.005l0,0.003l0.011,0.002l-0.01-0.005l-0.008,0.016l-0.01,0.015l0,0l-0.011,0.018
					l0.116,0.086l-0.104-0.102l-0.013,0.016l0.116,0.086l-0.104-0.102l0.304,0.294l-0.24-0.349l-0.064,0.055l0.304,0.294
					l-0.24-0.349l0.148,0.215l-0.128-0.227l-0.02,0.012l0.148,0.215l-0.128-0.227l-0.007,0.005l2.701,6.183L76,30.02
					c-0.129,0.055-0.412,0.148-0.893,0.212l-0.021,0.002l-0.02,0.002c-0.587,0.079-1.475,0.142-2.58,0.139V37.123v6.751
					c1.543-0.003,2.985-0.073,4.387-0.261l-0.039,0.006c1.512-0.196,2.988-0.564,4.39-1.154l0.044-0.018l0.044-0.02
					c1.195-0.52,2.337-1.227,3.345-2.093c1.008-0.868,1.875-1.886,2.568-2.98l-0.009,0.014c1.426-2.204,2.162-4.884,2.146-7.446
					c0-1.37-0.188-2.791-0.639-4.181c-0.66-2.091-1.973-4.051-3.61-5.46c-1.637-1.425-3.503-2.345-5.409-2.954l-2.054,6.428
					l2.844,6.119c1.051-0.488,2.073-1.091,3.025-1.854c1.427-1.13,2.684-2.653,3.492-4.396c0.819-1.742,1.173-3.636,1.167-5.418
					c0.004-1.486-0.261-3.007-0.769-4.396v-0.004c-0.502-1.389-1.268-2.707-2.206-3.823l-0.017-0.021l-0.012-0.014
					c-0.882-1.05-2.001-2.041-3.302-2.806l-3.431,5.812l3.537-5.747c-1.511-0.934-3.169-1.495-4.759-1.766l-0.023-0.005
					l-0.014-0.002C75.828,5.21,74.439,5.12,72.949,5.12h-8.152c-1.052,0.003-2.18,0.107-3.418,0.49
					c-1.226,0.378-2.597,1.092-3.729,2.235l0.007-0.008c-1.155,1.155-1.854,2.535-2.223,3.758c-0.374,1.236-0.475,2.355-0.479,3.407
					v18.988c0.003,1.039,0.105,2.142,0.463,3.352c0.356,1.198,1.016,2.535,2.109,3.685l-0.008-0.008
					c1.156,1.228,2.586,1.977,3.835,2.361c1.263,0.39,2.391,0.489,3.443,0.493h7.69V37.123z"/>
			</g>
			<g>
				<path fill="#0674B7" stroke="#0674B7" stroke-width="3" stroke-miterlimit="10" d="M103.588,15.818V9.07H85.359v19.704h17.32
					V25.54l-0.929,3.08c0.51,0.15,0.813,0.152,0.929,0.154V25.54l-0.929,3.08l1.417-4.7l-3.301,3.612
					c0.66,0.605,1.387,0.94,1.884,1.088l1.417-4.7l-3.301,3.612l0.028,0.024l0.025,0.023l3.387-3.785l-4.694,1.937
					c0.281,0.695,0.784,1.391,1.307,1.849l3.387-3.785l-4.694,1.937l4.361-1.8h-4.729c-0.001,0.448,0.079,1.101,0.368,1.8l4.361-1.8
					h-4.729h4.667l-4.321-1.734c-0.265,0.657-0.347,1.285-0.346,1.734h4.667l-4.321-1.734l4.617,1.853l-3.438-3.598
					c-0.475,0.443-0.924,1.09-1.179,1.745l4.617,1.853l-3.438-3.598l0.03-0.028l3.368,3.569l-1.459-4.701
					c-0.521,0.156-1.264,0.517-1.908,1.132l3.368,3.569l-1.459-4.701l0.972,3.13v-3.298c-0.12,0.002-0.442,0.005-0.972,0.168
					l0.972,3.13v-3.298h-17.32v20.691h18.622v-3.199l-0.937,3.039c0.503,0.153,0.815,0.158,0.937,0.16v-3.199l-0.937,3.039
					l1.412-4.572l-3.226,3.518c0.617,0.569,1.317,0.907,1.814,1.055l1.412-4.572l-3.226,3.518l0.016,0.016l0.021,0.017l3.315-3.668
					l-4.571,1.881c0.269,0.671,0.75,1.341,1.256,1.787l3.315-3.668l-4.571,1.881l4.208-1.73h-4.563
					c-0.002,0.43,0.078,1.058,0.354,1.73l4.208-1.73h-4.563h4.679l-4.3-1.818c-0.289,0.679-0.38,1.345-0.378,1.818h4.679l-4.3-1.818
					l4.544,1.92l-3.302-3.668c-0.485,0.427-0.961,1.071-1.242,1.748l4.544,1.92l-3.302-3.668l-0.03,0.025l-0.017,0.017l3.226,3.516
					l-1.412-4.572c-0.497,0.149-1.197,0.487-1.814,1.057l3.226,3.516l-1.412-4.572l0.937,3.039v-3.199
					c-0.122,0.003-0.434,0.008-0.937,0.16l0.937,3.039v-3.199H90.134v0.016l0.001-0.016h-0.001v0.016l0.001-0.016l-0.157,2.643
					l0.902-2.466c-0.448-0.161-0.694-0.172-0.745-0.177l-0.157,2.643l0.902-2.466l-1.571,4.29l3.244-3.194
					c-0.579-0.591-1.235-0.938-1.673-1.096l-1.571,4.29l3.244-3.194l-3.133,3.086l4.229-1.297c-0.124-0.419-0.45-1.136-1.096-1.789
					l-3.133,3.086l4.229-1.297l-2.659,0.815l2.761-0.355c-0.013-0.091-0.038-0.245-0.103-0.46l-2.659,0.815l2.761-0.355
					l-1.327,0.168l1.335-0.079l-0.008-0.089l-1.327,0.168l1.335-0.079l-0.427,0.025l0.43-0.011l-0.003-0.015l-0.427,0.025
					l0.43-0.011l-0.003-0.008V15.003v-0.004l-2.822-0.111l2.514,1.178c0.308-0.67,0.303-1.038,0.308-1.066l-2.822-0.111l2.514,1.178
					l0.009-0.018l-0.002,0.006l-4.208-1.961l3.279,3.279c0.419-0.416,0.737-0.901,0.929-1.318l-4.208-1.961l3.279,3.279
					l-3.317-3.319l1.948,4.273c0.449-0.202,0.954-0.536,1.37-0.954l-3.317-3.319l1.948,4.273l0.014-0.008l-1.445-3.154l0.613,3.427
					c0.171-0.031,0.457-0.1,0.833-0.272l-1.445-3.154l0.613,3.427l-0.329-1.838l0.149,1.86l0.179-0.022l-0.329-1.838l0.149,1.86
					l-0.061-0.747l0.03,0.75l0.031-0.003l-0.061-0.747l0.03,0.75h0.003h13.454v-3.069l-0.877,2.921
					c0.497,0.146,0.781,0.146,0.877,0.148v-3.069l-0.877,2.921l1.397-4.648l-3.268,3.566c0.662,0.61,1.386,0.94,1.871,1.082
					l1.397-4.648l-3.268,3.566l-0.028-0.023l3.359-3.627l-4.56,1.897c0.271,0.67,0.734,1.305,1.201,1.729l3.359-3.627l-4.56,1.897
					l4.325-1.801h-4.696c-0.002,0.474,0.091,1.134,0.371,1.801l4.325-1.801h-4.696h4.622l-4.265-1.749
					c-0.277,0.668-0.359,1.308-0.357,1.749h4.622l-4.265-1.749l4.577,1.877l-3.366-3.629c-0.48,0.435-0.944,1.084-1.211,1.752
					l4.577,1.877l-3.366-3.629l0.035-0.033l3.265,3.57l-1.393-4.65c-0.484,0.141-1.207,0.469-1.872,1.08l3.265,3.57l-1.393-4.65
					l0.872,2.912V9.07c-0.093,0.003-0.376,0.003-0.872,0.147l0.872,2.912V9.07V15.818v6.748c0.907-0.002,1.899-0.092,2.998-0.419
					c1.087-0.321,2.308-0.919,3.366-1.887l0.017-0.017l0.018-0.019c0.873-0.799,1.635-1.872,2.1-3.021
					c0.473-1.15,0.654-2.331,0.652-3.372c0.002-1.056-0.188-2.244-0.667-3.388c-0.472-1.144-1.228-2.198-2.089-2.987l-0.014-0.014
					l-0.011-0.01c-1.056-0.97-2.276-1.57-3.366-1.894c-1.1-0.326-2.092-0.419-3.003-0.42H90.134c-1.373,0.009-2.9,0.172-4.588,0.932
					l0.014-0.007c-0.913,0.414-1.82,1.024-2.574,1.782c-0.76,0.756-1.354,1.644-1.761,2.524l0.005-0.012
					c-0.784,1.7-0.958,3.257-0.968,4.663v18.988c0.004,1.05,0.108,2.168,0.48,3.4c0.369,1.216,1.059,2.58,2.192,3.729
					c1.149,1.172,2.545,1.892,3.776,2.268c1.247,0.381,2.372,0.482,3.422,0.486h13.847c0.925-0.003,1.938-0.104,3.045-0.443
					c1.1-0.333,2.304-0.95,3.325-1.892l-0.046,0.042c0.894-0.797,1.679-1.871,2.164-3.031c0.493-1.163,0.688-2.367,0.684-3.435
					c0.003-1.052-0.178-2.239-0.661-3.408c-0.474-1.168-1.261-2.271-2.177-3.089l0.036,0.034c-1.021-0.942-2.226-1.558-3.325-1.894
					c-1.107-0.34-2.12-0.437-3.045-0.441h-5.125v-0.445h-6.748v6.748h10.572c0.913-0.001,1.919-0.098,3.033-0.438
					c1.102-0.337,2.327-0.971,3.351-1.943l0.021-0.021l0.008-0.008c0.849-0.804,1.578-1.863,2.023-2.986
					c0.453-1.125,0.629-2.272,0.627-3.292c0.002-1.018-0.173-2.188-0.652-3.348c-0.47-1.159-1.26-2.256-2.172-3.063l-4.5,5.029
					l4.552-4.981c-1.04-0.953-2.246-1.55-3.324-1.871c-1.09-0.325-2.072-0.416-2.969-0.419H92.108v6.749h6.748v-6.209h-6.748v6.748
					h11.48V15.818z"/>
			</g>
			<g>
				<path fill="#0674B7" stroke="#0674B7" stroke-width="3" stroke-miterlimit="10" d="M120.217,15.713V8.965h-11.452v20.446h11.312
					c1.614-0.005,3.153-0.127,4.748-0.524l0.046-0.012l-0.04,0.01c0.914-0.232,1.854-0.58,2.783-1.107
					c0.926-0.525,1.832-1.243,2.59-2.13l-0.007,0.009c0.859-0.992,1.467-2.163,1.818-3.289c0.354-1.133,0.476-2.218,0.477-3.222
					c0-0.91-0.117-1.883-0.395-2.851c-0.275-0.967-0.717-1.92-1.28-2.761l0.034,0.054c-0.545-0.835-1.239-1.607-2.021-2.239
					c-0.783-0.636-1.642-1.131-2.501-1.487l0.06,0.024c-0.707-0.299-1.274-0.446-1.795-0.56c-0.78-0.166-1.463-0.24-2.172-0.292
					c-0.705-0.05-1.427-0.069-2.204-0.069V15.713v6.749c0.714-0.002,1.244,0.029,1.476,0.056l0.109,0.012l0.006,0.002l0.569-3.281
					l-1.304,3.043c0.538,0.223,0.718,0.229,0.734,0.238l0.569-3.281l-1.304,3.043l0.034,0.016l0.026,0.011l1.279-3.069l-2.091,2.577
					c0.289,0.236,0.586,0.397,0.812,0.492l1.279-3.069l-2.091,2.577l2.315-2.854l-3.075,2.017c0.196,0.299,0.468,0.604,0.76,0.838
					l2.315-2.854l-3.075,2.017l0.019,0.028l0.018,0.025l3.049-2.041l-3.528,1.01c0.097,0.35,0.273,0.727,0.479,1.031l3.049-2.041
					l-3.528,1.01l3.021-0.866h-3.15c0,0.206,0.027,0.517,0.129,0.866l3.021-0.866h-3.15h2.768l-2.623-0.824
					c-0.134,0.43-0.144,0.716-0.145,0.824h2.768l-2.623-0.824l3.986,1.253l-3.161-2.718c-0.419,0.482-0.697,1.043-0.826,1.465
					l3.986,1.253l-3.161-2.718l-0.007,0.008l2.813,2.413l-1.838-3.227c-0.289,0.161-0.656,0.438-0.975,0.813l2.813,2.413
					l-1.838-3.227l1.155,2.03l-0.576-2.277c-0.083,0.021-0.29,0.081-0.58,0.247l1.155,2.03l-0.576-2.277l0.003-0.002
					c-0.078,0.025-0.603,0.116-1.437,0.112h-4.563v6.749h6.749v-6.95h-6.749v6.749h4.703V15.713z M117.3,26.329v-6.747h-1.786h-6.75
					V34.43v0.008l2.254,0.064l-2.123-0.688c-0.131,0.41-0.129,0.614-0.131,0.623l2.254,0.064l-2.123-0.688l4.161,1.348l-3.192-2.963
					c-0.542,0.576-0.841,1.209-0.968,1.615l4.161,1.348l-3.192-2.963l-0.008,0.007l3.267,3.022l-1.693-4.112
					c-0.6,0.243-1.189,0.666-1.573,1.09l3.267,3.022l-1.693-4.112l1.547,3.758v-4.076c-0.373-0.001-0.945,0.07-1.547,0.318
					l1.547,3.758v-4.076v3.963l1.526-3.638c-0.647-0.271-1.208-0.326-1.526-0.325v3.963l1.526-3.638l-1.785,4.261l3.536-2.971
					c-0.43-0.524-1.105-1.028-1.75-1.29l-1.785,4.261l3.536-2.971l-0.013-0.015l-3.145,2.654l3.976-1.142
					c-0.103-0.368-0.355-0.956-0.831-1.513l-3.145,2.654l3.976-1.142l-2.568,0.739l2.654-0.329c-0.011-0.086-0.032-0.226-0.085-0.41
					l-2.568,0.739l2.654-0.329l-1.396,0.172l1.405-0.081l-0.009-0.091l-1.396,0.172l1.405-0.081l-0.324,0.018h0.326l-0.001-0.018
					l-0.324,0.018h0.326V15.003v-0.008l-2.299-0.066l2.157,0.724c0.144-0.438,0.14-0.649,0.142-0.657l-2.299-0.066l2.157,0.724
					l-4.238-1.422l3.155,3.137c0.608-0.609,0.944-1.287,1.083-1.715l-4.238-1.422l3.155,3.137l-3.139-3.121l1.321,4.252
					c0.433-0.128,1.167-0.471,1.818-1.131l-3.139-3.121l1.321,4.252l-0.845-2.719l0.369,2.828c0.096-0.014,0.253-0.04,0.476-0.109
					l-0.845-2.719l0.369,2.828l-0.182-1.398l0.084,1.407l0.098-0.009l-0.182-1.398l0.084,1.407l-0.031-0.498l0.015,0.498h0.016
					l-0.031-0.498l0.015,0.498h0.007h8.287c0.956-0.001,1.689,0.045,2.118,0.098l-0.006-0.001l0.227,0.04l0.014,0.005l0.113-0.36
					l-0.158,0.342l0.045,0.019l0.113-0.36l-0.158,0.342l0.094,0.043l0.098,0.042l0.12-0.283l-0.172,0.253l0.053,0.03l0.12-0.283
					l-0.172,0.253l0.152-0.222l-0.173,0.206l0.021,0.016l0.152-0.222l-0.173,0.206l0.043-0.053l-0.047,0.051l0.003,0.002
					l0.043-0.053l-0.047,0.051l0.004,0.005l4.8-4.744l-4.854,4.688l0.278-0.269l-0.359,0.137l0.081,0.132l0.278-0.269l-0.359,0.137
					l0.008,0.021l0.006,0.014c0.009,0.032,0.02,0.033,0.022,0.188c0,0.155-0.01,0.253-0.017,0.3l-0.005,0.031l0.276,0.062
					l-0.267-0.094l-0.009,0.032l0.276,0.062l-0.267-0.094l1.108,0.396l-0.852-0.801l-0.256,0.404l1.108,0.396l-0.852-0.801
					l0.01-0.011l0.54,0.509l-0.487-0.56l-0.053,0.051l0.54,0.509l-0.487-0.56l0.134,0.155l-0.123-0.166l-0.011,0.011l0.134,0.155
					l-0.123-0.166c-0.001,0.011-0.427,0.282-1.411,0.492l-1.739,12.545c0.039,0.019,0.307,0.183,0.707,0.64l-0.022-0.026
					c0.575,0.659,1.086,1.357,1.528,2.084l-0.008-0.015c0.528,0.869,0.88,1.561,1.071,2.013l-0.015-0.033
					c0.063,0.146,0.109,0.265,0.139,0.345l0.039,0.108l0.771-0.251l-0.782,0.219l0.01,0.032l0.771-0.251l-0.782,0.219l3.353-0.934
					l-3.425,0.601c0.032,0.188,0.06,0.284,0.072,0.333l3.353-0.934l-3.425,0.601l5.286-0.928h-5.364
					c0.001,0.466,0.046,0.74,0.078,0.928l5.286-0.928h-5.364h5.121l-4.879-1.559c-0.148,0.456-0.245,1.008-0.242,1.559h5.121
					l-4.879-1.559l4.413,1.41l-3.906-2.501c-0.17,0.267-0.361,0.632-0.507,1.091l4.413,1.41l-3.906-2.501l-0.008,0.012l3.804,2.425
					l-2.072-4.018c-0.566,0.273-1.305,0.894-1.732,1.593l3.804,2.425l-2.072-4.018l0.006-0.005l1.814,3.528v-3.994
					c-0.385-0.004-1.073,0.085-1.814,0.466l1.814,3.528v-3.994v3.851l1.04-3.7c-0.43-0.122-0.791-0.15-1.04-0.15v3.851l1.04-3.7
					l-1.232,4.388l2.588-3.749c-0.438-0.303-0.929-0.521-1.355-0.639l-1.232,4.388l2.588-3.749l0.029,0.021l-1.585,2.269
					l2.292-1.565c-0.135-0.203-0.392-0.484-0.707-0.703l-1.585,2.269l2.292-1.565l-0.01-0.015v0.001
					c-0.12-0.173-0.469-0.727-0.916-1.473l-2.046-3.411l-5.787,3.473l5.823-3.413c-0.875-1.482-1.695-2.722-2.714-3.893
					l-0.004-0.005c-1.065-1.204-2.432-2.378-4.285-3.14l-0.012-0.005l0.002,0.002c-1.723-0.687-3.292-0.844-4.778-0.852V26.329
					v6.749l0.164,0.006l0.025,0.002l0.271-1.988l-0.749,1.845c0.3,0.122,0.461,0.139,0.479,0.144l0.271-1.988l-0.749,1.845
					l-0.01-0.006l1.081-2.651l-1.745,2.285c0.116,0.089,0.339,0.236,0.664,0.366l1.081-2.651l-1.745,2.285l0.804-1.055l-0.914,0.963
					l0.11,0.092l0.804-1.055l-0.914,0.963l0.139-0.145l-0.146,0.139l0.006,0.006l0.139-0.145l-0.146,0.139l0.022,0.022l-0.006-0.005
					c0.129,0.135,0.624,0.798,1.208,1.809l0.019,0.028l2.063,3.44c0.511,0.85,0.922,1.521,1.367,2.172l-0.01-0.015
					c0.697,1.024,1.62,1.992,2.709,2.754l0.02,0.011l0.01,0.009c0.829,0.572,1.756,0.993,2.664,1.246
					c0.911,0.255,1.794,0.353,2.61,0.353c1.347,0.004,2.889-0.271,4.358-1.027l0.007-0.006c1.302-0.653,2.615-1.79,3.464-3.149
					l-0.009,0.012c0.38-0.595,0.73-1.288,0.981-2.077c0.252-0.786,0.402-1.667,0.4-2.55c-0.005-0.71-0.084-1.19-0.164-1.604
					c-0.123-0.611-0.264-1.063-0.412-1.499c-0.149-0.434-0.308-0.841-0.483-1.26l-0.007-0.016l-0.008-0.019
					c-0.537-1.265-1.189-2.476-1.95-3.735l-0.01-0.015c-0.847-1.39-1.812-2.704-2.877-3.927l-0.016-0.02l-0.005-0.008
					c-1.251-1.418-2.718-2.683-4.482-3.627l-3.18,5.952l1.442,6.595c1.512-0.333,2.975-0.807,4.379-1.503
					c1.401-0.696,2.752-1.633,3.901-2.854l0.013-0.013l-0.001,0.001c1.175-1.245,2.085-2.772,2.637-4.356
					c0.558-1.588,0.778-3.209,0.778-4.776c0.003-1.691-0.302-3.432-0.926-5.044l0.012,0.035c-0.628-1.673-1.616-3.209-2.831-4.46
					l-0.025-0.027l-0.027-0.027c-1.193-1.214-2.667-2.228-4.267-2.9l-2.631,6.216l2.825-6.13c-1.392-0.641-2.821-0.994-4.197-1.163
					h-0.007c-1.2-0.146-2.42-0.196-3.751-0.196h-8.287c-1.054,0.003-2.18,0.107-3.422,0.488c-1.228,0.375-2.606,1.089-3.75,2.243
					c-1.142,1.145-1.843,2.515-2.215,3.738c-0.378,1.235-0.481,2.359-0.485,3.413V34.43c0.001,0.999,0.102,2.066,0.431,3.214
					c0.324,1.141,0.91,2.38,1.832,3.466l-0.014-0.016c0.872,1.053,2.089,1.955,3.364,2.478c1.28,0.539,2.563,0.729,3.694,0.726
					c1.125,0.003,2.379-0.195,3.595-0.698c1.212-0.492,2.343-1.297,3.194-2.227l0.017-0.02l-0.024,0.026
					c1.045-1.124,1.698-2.442,2.048-3.628c0.353-1.2,0.455-2.296,0.457-3.321v-8.101h-6.749v6.749h1.786V26.329z"/>
			</g>
		</g>
		<g>
			<g>
				<g>
					<path fill="#FFFFFF" d="M35.206,29.147h-6.748h1.043l-1.024-0.233c-0.002,0.008-0.019,0.089-0.019,0.233h1.043l-1.024-0.233
						c0,0.003-0.014,0.063-0.072,0.198l-0.004,0.01l-0.006,0.016c-0.021,0.05-0.145,0.308-0.549,0.735l-0.012,0.012l-0.019,0.021
						c-0.104,0.111-0.352,0.334-0.97,0.603l0.03-0.015c-0.325,0.14-0.929,0.305-1.965,0.305c-0.909,0.001-1.606-0.086-2.093-0.203
						l0.006,0.003c-0.458-0.106-0.766-0.245-0.999-0.385l-0.017-0.01l-0.01-0.007c-0.196-0.117-0.46-0.321-0.783-0.695l-5.131,4.383
						l5.178-4.328c-0.298-0.358-0.552-0.747-0.787-1.236l0.002,0.002c-0.227-0.475-0.412-1.014-0.542-1.628l-0.003-0.021
						l0.005,0.027c-0.13-0.623-0.208-1.337-0.208-2.167c0-1.386,0.201-2.401,0.468-3.126L20,21.395l0.004-0.01
						c0.297-0.803,0.637-1.316,1.057-1.76l-0.011,0.011c0.478-0.485,0.916-0.783,1.544-1.045l-0.023,0.01
						c0.665-0.264,1.339-0.402,2.203-0.407c1.153,0.009,1.817,0.206,2.365,0.48l0.005,0.003c0.818,0.422,1.101,0.748,1.22,0.914
						l-0.014-0.02l0.148,0.232l0.015,0.029l0.045-0.021l-0.046,0.02l0,0.001l0.045-0.021l-0.046,0.02l1.746-0.744h-1.866
						c-0.002,0.424,0.105,0.713,0.12,0.744l1.746-0.744h-1.866h4.538l-4.208-1.693c-0.225,0.55-0.335,1.185-0.331,1.693h4.538
						l-4.208-1.693l3.977,1.601l-3.188-2.879c-0.254,0.278-0.568,0.725-0.79,1.278l3.977,1.601l-3.188-2.879l0.041-0.045l3.425,3.15
						l-1.899-4.237c-0.659,0.291-1.198,0.725-1.526,1.087l3.425,3.15l-1.899-4.237l1.948,4.344v-4.768
						c-0.559-0.005-1.293,0.125-1.948,0.424l1.948,4.344v-4.768v3.945l1.192-3.744c-0.574-0.181-0.972-0.199-1.192-0.201v3.945
						l1.192-3.744l-1.572,4.937l3.551-3.756c-0.659-0.629-1.415-1.005-1.979-1.181l-1.572,4.937l3.551-3.756l0.013,0.012
						L34.21,18.06l2.416-1.641c-0.011-0.01-0.089-0.149-0.415-0.465L34.21,18.06l2.416-1.641l-0.047-0.075l-0.13-0.238l-0.009-0.019
						l-0.013-0.023c-1.03-1.931-2.443-3.777-4.443-5.173l-0.02-0.014l-0.021-0.015c-1.07-0.735-2.275-1.286-3.495-1.626
						c-1.221-0.343-2.451-0.484-3.639-0.484c-1.899-0.004-3.907,0.381-5.738,1.262c-1.833,0.872-3.414,2.216-4.587,3.733
						l-0.005,0.006c-1.242,1.596-2.076,3.416-2.579,5.263c-0.503,1.853-0.702,3.744-0.704,5.687c0.007,2.584,0.34,5.091,1.357,7.527
						l-0.013-0.03c0.483,1.16,1.123,2.292,1.948,3.325c0.822,1.032,1.835,1.958,2.969,2.682l0.012,0.008l0.011,0.007
						c1.073,0.684,2.262,1.207,3.48,1.537c1.22,0.335,2.464,0.482,3.678,0.482c1.292,0,2.623-0.161,3.934-0.549
						c1.309-0.386,2.59-0.999,3.717-1.814l0.007-0.004c1.125-0.809,2.107-1.817,2.885-2.912c0.781-1.098,1.367-2.273,1.801-3.47
						l0.042-0.11l0.036-0.111l0.013-0.041l-1.688-0.68l1.435,1.092c0.192-0.253,0.251-0.407,0.253-0.412l-1.688-0.68l1.435,1.092
						l0.007-0.007l-4.191-3.182l1.997,4.873c0.747-0.289,1.629-0.927,2.194-1.691l-4.191-3.182l1.997,4.873l-1.642-4.006v4.353
						c0.312-0.002,0.886-0.039,1.642-0.347l-1.642-4.006v4.353v-4.519l-1.709,4.176c0.6,0.249,1.235,0.347,1.709,0.343v-4.519
						l-1.709,4.176l1.716-4.19l-3.19,3.223c0.342,0.344,0.873,0.725,1.475,0.968l1.716-4.19l-3.19,3.223l0.021,0.02l0.021,0.021
						l3.227-3.316l-4.274,1.756c0.248,0.617,0.656,1.186,1.047,1.561l3.227-3.316l-4.274,1.756l4.127-1.693h-4.471
						c-0.004,0.452,0.087,1.079,0.344,1.693l4.127-1.693h-4.471H35.206h6.749c0.002-1.084-0.196-2.291-0.668-3.433
						c-0.466-1.146-1.198-2.189-2.024-2.986l0.04,0.041c-0.775-0.773-1.783-1.476-2.906-1.932c-1.12-0.463-2.322-0.667-3.406-0.663
						c-1.02,0.001-2.207,0.146-3.475,0.662c-1.261,0.502-2.559,1.453-3.441,2.637l0.006-0.008c-0.899,1.186-1.46,2.418-1.856,3.629
						l6.417,2.087l-6.341-2.311l-0.094,0.224l-0.024,0.041l0.719,0.473l-0.494-0.686l-0.225,0.213l0.719,0.473l-0.494-0.686
						l0.006-0.005l0.667,0.929l-0.324-1.103l-0.343,0.174l0.667,0.929l-0.324-1.103l0.138,0.472l-0.101-0.48l-0.037,0.009
						l0.138,0.472l-0.101-0.48l0.007,0.035l-0.006-0.037l-0.001,0.002l0.007,0.035l-0.006-0.037l-0.156,0.01l-0.126-0.007
						l-0.011-0.001l-0.111,0.614l0.331-0.518l-0.219-0.097l-0.111,0.614l0.331-0.518l0.024,0.014l-0.64,0.998l0.931-0.742
						l-0.291-0.256l-0.64,0.998l0.931-0.742l-0.407,0.323l0.43-0.292l-0.023-0.031l-0.407,0.323l0.43-0.292l-0.063,0.044
						l0.065-0.042l-0.002-0.002l-0.063,0.044l0.065-0.042L25,27.007l-0.005-0.011l-0.007-0.017
						c-0.083-0.175-0.302-0.936-0.295-2.277c-0.001-0.997,0.11-1.711,0.226-2.127c0.118-0.423,0.215-0.537,0.217-0.54l-0.005,0.007
						l0.016-0.02l-0.625-0.605l0.322,0.795c0.136-0.049,0.294-0.172,0.304-0.189l-0.625-0.605l0.322,0.795l-0.257-0.633l0.125,0.676
						l0.132-0.043l-0.257-0.633l0.125,0.676l-0.009-0.049l0.006,0.049h0.003l-0.009-0.049l0.006,0.049l0.1-0.006l0.089,0.006
						l0.175-1.359l-0.757,1.104c0.256,0.185,0.577,0.262,0.582,0.256l0.175-1.359l-0.757,1.104l-0.041-0.029l0.472-0.679
						l-0.565,0.606l0.093,0.072l0.472-0.679l-0.565,0.606l0.104-0.111l-0.109,0.106l0.004,0.005l0.104-0.111l-0.109,0.106
						c0.004,0.004,0.144,0.155,0.34,0.525l-0.021-0.042c0.29,0.551,0.595,1.082,0.964,1.626c0.374,0.544,0.797,1.107,1.45,1.734
						l0.013,0.012c0.983,0.935,2.145,1.542,3.2,1.874c1.063,0.338,2.031,0.433,2.902,0.436c1.146,0.006,2.42-0.236,3.573-0.758
						c1.157-0.514,2.149-1.283,2.889-2.092l0.02-0.023l0.021-0.021c0.664-0.731,1.288-1.661,1.716-2.729
						c0.433-1.065,0.648-2.249,0.644-3.346c0.002-1.437-0.293-2.811-0.749-4.02c-0.457-1.216-1.065-2.285-1.75-3.261l-0.009-0.015
						l-0.004-0.006c-1.579-2.231-3.732-3.928-6.09-5.129l0.006,0.003c-2.638-1.358-5.594-1.971-8.52-1.964
						c-2.476-0.004-4.949,0.457-7.237,1.38l-0.009,0.004l-0.015,0.006c-2.324,0.938-4.449,2.38-6.173,4.175l-0.012,0.012h0.001
						c-1.773,1.838-3.132,4.076-4.007,6.494l0.007-0.021c-0.914,2.485-1.298,5.113-1.298,7.786c0,1.671,0.157,3.321,0.495,4.934
						l0.001,0.007c0.338,1.607,0.857,3.173,1.566,4.658l0.002,0.006c0.704,1.474,1.583,2.848,2.61,4.074l0.023,0.027l0.023,0.026
						c1.166,1.367,2.541,2.573,4.115,3.517l-0.028-0.02c1.536,0.931,3.208,1.584,4.92,1.984h0.006
						c1.691,0.393,3.406,0.549,5.146,0.551c2.465,0,4.929-0.397,7.241-1.377l0.016-0.009l0.015-0.004
						c2.003-0.862,3.924-2.098,5.508-3.8l-0.031,0.035c1.296-1.373,2.41-2.949,3.177-4.769l-0.011,0.025
						c0.677-1.59,1.13-3.354,1.132-5.252H35.206z"/>
				</g>
				<g>
					<path fill="#FFFFFF" d="M45.397,34.43h6.749v-9.988l-7.216-11.221l-5.676,3.65l5.725-3.574
						c-0.461-0.729-0.742-1.261-0.737-1.266l-0.001-0.004l-2.347,1.083l2.491-0.661c-0.067-0.25-0.125-0.378-0.145-0.422
						l-2.347,1.083l2.491-0.661l-4.325,1.147h4.468c0-0.519-0.077-0.898-0.143-1.147l-4.325,1.147h4.468h-4.758l4.339,1.944
						c0.285-0.624,0.424-1.355,0.419-1.944h-4.758l4.339,1.944L40,13.701l3.111,3.265c0.321-0.303,0.716-0.796,0.997-1.425
						L40,13.701l3.111,3.265l-0.04,0.039L40.03,13.76l1.574,4.155c0.555-0.206,1.094-0.556,1.467-0.91L40.03,13.76l1.574,4.155
						l-1.473-3.888v4.166c0.376,0.003,0.917-0.066,1.473-0.278l-1.473-3.888v4.166v-4.147l-1.45,3.867
						c0.649,0.242,1.161,0.28,1.45,0.28v-4.147l-1.45,3.867l1.763-4.701l-3.691,3.397c0.535,0.595,1.286,1.072,1.928,1.304
						l1.763-4.701l-3.691,3.397l-0.038-0.041l1.806-1.634l-1.885,1.54l0.08,0.094l1.806-1.634l-1.885,1.54l0.388-0.316l-0.395,0.31
						l0.007,0.007l0.388-0.316l-0.395,0.31c0.008,0.009,0.128,0.169,0.294,0.421c0.169,0.252,0.392,0.602,0.651,1.029l0.009,0.012
						l10.422,16.978L58.56,17.91l0.03-0.047c0.259-0.436,0.483-0.801,0.677-1.117l0.005-0.009l0.01-0.017l0.035-0.054l-0.229-0.164
						l0.214,0.183l0.015-0.019l-0.229-0.164l0.214,0.183l0.02-0.024l0.019-0.024L56.1,13.935l1.917,3.739
						c0.672-0.345,1.111-0.776,1.324-1.037L56.1,13.935l1.917,3.739l-0.012,0.007l-2.02-3.958v4.471
						c0.395,0.006,1.189-0.086,2.02-0.513l-2.02-3.958v4.471v-4.357l-1.593,4.047c0.587,0.233,1.174,0.313,1.593,0.311v-4.357
						l-1.593,4.047l1.677-4.259l-3.203,3.275c0.38,0.378,0.938,0.756,1.525,0.983l1.677-4.259l-3.203,3.275l0.022,0.021l0.019,0.019
						l3.19-3.318l-4.203,1.852c0.277,0.636,0.676,1.147,1.013,1.467l3.19-3.318l-4.203,1.852l4.418-1.946h-4.831
						c-0.005,0.591,0.131,1.316,0.413,1.946l4.418-1.946h-4.831h3.643l-3.292-1.592c-0.19,0.381-0.355,0.975-0.351,1.592h3.643
						l-3.292-1.592l0.009-0.02l0.572,0.279l-0.567-0.29l-0.005,0.011l0.572,0.279l-0.567-0.29c0,0.011-0.26,0.465-0.679,1.089
						l-0.02,0.032l-7.404,11.401V34.43h1.118l-1.105-0.145l-0.012,0.145h1.118l-1.105-0.145l3.19,0.421l-2.955-1.245
						c-0.162,0.386-0.215,0.672-0.235,0.824l3.19,0.421l-2.955-1.245l4.056,1.709l-3.219-2.993
						c-0.396,0.425-0.678,0.902-0.837,1.284l4.056,1.709l-3.219-2.993l-0.007,0.007l3.204,2.969l-1.694-4.018
						c-0.6,0.247-1.155,0.661-1.51,1.049l3.204,2.969l-1.694-4.018l1.608,3.813v-4.15c-0.411-0.004-1.01,0.081-1.608,0.337
						l1.608,3.813v-4.15v4.075l1.551-3.753c-0.609-0.254-1.185-0.323-1.551-0.322v4.075l1.551-3.753l-1.701,4.113l3.283-3.012
						c-0.38-0.425-0.974-0.855-1.583-1.102l-1.701,4.113l3.283-3.012l-3.147,2.885l4.112-1.226
						c-0.114-0.399-0.407-1.055-0.965-1.659l-3.147,2.885l4.112-1.226l-2.645,0.789l2.742-0.349
						c-0.011-0.091-0.035-0.238-0.097-0.44l-2.645,0.789l2.742-0.349l-1.402,0.181l1.411-0.086l-0.009-0.095l-1.402,0.181
						l1.411-0.086l-0.562,0.034l0.563-0.017l-0.001-0.018l-0.562,0.034l0.563-0.017V34.43H45.397h-6.749
						c0.002,1.025,0.104,2.121,0.458,3.314c0.349,1.182,0.993,2.485,2.02,3.603c0.85,0.935,1.986,1.75,3.208,2.249
						c1.223,0.508,2.482,0.704,3.605,0.701c1.148,0.004,2.424-0.211,3.634-0.723c1.211-0.506,2.316-1.306,3.15-2.216l-0.007,0.008
						c1.014-1.087,1.684-2.385,2.046-3.577c0.368-1.207,0.477-2.322,0.479-3.359v-6.007l5.207-8.018l-5.66-3.675l5.621,3.736
						c0.608-0.925,1.089-1.676,1.564-2.636l0.01-0.02c0.622-1.276,1-2.774,0.996-4.285c0.004-1.137-0.236-2.38-0.733-3.496
						c-0.491-1.12-1.213-2.083-1.984-2.821l0.041,0.039c-0.808-0.795-1.843-1.486-2.965-1.924c-1.121-0.443-2.292-0.63-3.353-0.627
						c-1.224-0.006-2.709,0.238-4.114,0.96l-0.013,0.005c-1.246,0.64-2.198,1.508-2.882,2.331l0.04-0.048
						c-0.504,0.595-0.921,1.196-1.266,1.762l0.015-0.024c-0.203,0.331-0.462,0.754-0.764,1.259l5.794,3.461l-5.733-3.561
						l-4.757,7.661l5.733,3.559l5.75-3.53l-4.703-7.66l0.011,0.017c-0.404-0.661-0.772-1.24-1.137-1.774
						c-0.374-0.539-0.708-1.01-1.239-1.604l-0.015-0.016L46.685,7.47c-0.899-0.988-2.094-1.765-3.265-2.194
						c-1.178-0.439-2.301-0.577-3.289-0.578c-1.043-0.002-2.195,0.173-3.309,0.596c-1.114,0.418-2.157,1.085-2.981,1.862l-0.02,0.02
						L33.8,7.194c-0.771,0.73-1.504,1.691-2.011,2.826c-0.511,1.131-0.766,2.405-0.76,3.576c0.001,0.878,0.132,1.646,0.309,2.313
						c0.179,0.668,0.403,1.245,0.645,1.771l-0.001-0.002c0.447,0.959,0.928,1.769,1.547,2.766l0.023,0.038l5.097,7.926v6.021H45.397
						z"/>
				</g>
				<g>
					<path fill="#FFFFFF" d="M66.799,15.713h-6.749v13.273h11.422c0.855,0,1.681-0.04,2.522-0.145
						c0.84-0.105,1.697-0.269,2.635-0.592l-0.006,0.001c1.1-0.376,2.202-0.995,3.126-1.8c0.927-0.8,1.661-1.764,2.184-2.727
						l-5.928-3.227l5.792,3.464c0.95-1.567,1.398-3.432,1.383-5.08c0-1.418-0.239-3.085-1.135-4.775
						c-0.444-0.835-1.055-1.644-1.782-2.314c-0.725-0.675-1.551-1.207-2.371-1.582l0.016,0.008c-1.251-0.572-2.399-0.841-3.53-1.019
						c-1.131-0.171-2.257-0.233-3.438-0.234H60.051v6.748H66.799v6.749h4.142c0.668-0.002,1.159,0.042,1.406,0.082l0.138,0.022
						l0.035,0.009l0.413-1.602l-0.691,1.493c0.195,0.089,0.278,0.107,0.278,0.108l0.413-1.602l-0.691,1.493l0.007,0.003l0.008,0.005
						l1.878-4.087l-3.058,3.292c0.385,0.357,0.814,0.627,1.18,0.795l1.878-4.087l-3.058,3.292l3.072-3.308l-4.262,1.518
						c0.181,0.536,0.604,1.254,1.19,1.79l3.072-3.308l-4.262,1.518l2.831-1.008h-3.032c0.002,0.115,0.009,0.464,0.201,1.008
						l2.831-1.008h-3.032h3.618l-3.089-1.848c-0.374,0.602-0.542,1.385-0.529,1.848h3.618l-3.089-1.848l-0.07,0.118l-0.065,0.12
						l3.261,1.775l-2.423-2.801c-0.399,0.342-0.684,0.738-0.838,1.025l3.261,1.775l-2.423-2.801l2.582,2.981l-1.294-3.73
						c-0.403,0.135-0.895,0.403-1.288,0.749l2.582,2.981l-1.294-3.73L72.197,15.5l0.599,1.719l-0.388-1.78l-0.21,0.062l0.599,1.719
						l-0.388-1.78l0.009,0.041l-0.007-0.041h-0.002l0.009,0.041l-0.007-0.041c-0.045,0.011-0.391,0.054-0.937,0.052h-4.674v6.748
						h6.75v-6.525H66.799v6.749V15.713z M72.106,25.906v-6.747H60.051v20.866h12.226c1.267-0.001,2.531-0.107,3.842-0.42
						c0.981-0.236,1.996-0.597,3-1.159c1.502-0.827,2.968-2.214,3.856-3.888c0.906-1.67,1.226-3.456,1.222-5.019
						c0-1.41-0.249-3.014-1.004-4.584c-0.74-1.569-2.026-2.98-3.428-3.865l-0.007-0.003l-0.015-0.01
						c-1.309-0.832-2.631-1.283-3.892-1.555c-1.267-0.269-2.495-0.363-3.745-0.364V25.906v6.75c0.525-0.001,0.85,0.047,0.918,0.064
						h0.003l0.611-2.095l-1.167,1.824c0.311,0.195,0.512,0.256,0.556,0.271l0.611-2.095l-1.167,1.824l-0.019-0.014l2.148-3.333
						l-3.564,1.719c0.293,0.646,0.91,1.308,1.416,1.614l2.148-3.333l-3.564,1.719l2.659-1.282h-2.997
						c-0.001,0.135,0.026,0.638,0.337,1.282l2.659-1.282h-2.997h2.876l-2.579-1.188c-0.268,0.577-0.3,1.043-0.297,1.188h2.876
						l-2.579-1.188l3.467,1.597l-2.6-2.797c-0.346,0.317-0.674,0.772-0.867,1.2l3.467,1.597l-2.6-2.797l1.816,1.956l-0.739-2.619
						c-0.078,0.021-0.549,0.174-1.077,0.663l1.816,1.956l-0.739-2.619l0.123,0.435l-0.104-0.439l-0.02,0.005l0.123,0.435
						l-0.104-0.439l-0.169,0.023c-0.117,0.012-0.291,0.024-0.514,0.024h-5.477v6.747h6.75v-7.372h-6.75v6.75h5.307V25.906z
						 M72.487,37.123v-6.749h-7.69h-0.001l-0.162,2.71l0.936-2.523c-0.47-0.172-0.724-0.182-0.774-0.187l-0.162,2.71l0.936-2.523
						l-1.619,4.365l3.368-3.19c-0.595-0.632-1.288-1.009-1.749-1.175l-1.619,4.365l3.368-3.19l-0.019-0.018l0.012,0.011
						l-3.151,2.993l4.188-1.255c-0.117-0.402-0.42-1.091-1.037-1.738l-3.151,2.993l4.188-1.255l-2.595,0.779l2.691-0.344
						c-0.011-0.086-0.035-0.23-0.096-0.436l-2.595,0.779l2.691-0.344l-1.264,0.16l1.273-0.074l-0.009-0.086l-1.264,0.16l1.273-0.074
						L68.4,33.991h0.052v-0.003L68.4,33.991h0.052V15.003V15l-2.578-0.153l2.409,0.871c0.154-0.437,0.164-0.673,0.169-0.718
						l-2.578-0.153l2.409,0.871l-4.274-1.545l3.205,3.194c0.583-0.579,0.917-1.224,1.069-1.649l-4.274-1.545l3.205,3.194
						l0.008-0.006l-3.154-3.136l1.333,4.27c0.438-0.132,1.174-0.479,1.82-1.134l-3.154-3.136l1.333,4.27l-0.865-2.77l0.377,2.88
						c0.099-0.013,0.262-0.041,0.488-0.11l-0.865-2.77l0.377,2.88l-0.192-1.466l0.089,1.477l0.103-0.011l-0.192-1.466l0.089,1.477
						l-0.034-0.575l0.016,0.575h0.018l-0.034-0.575l0.016,0.575h0.003h8.152c0.911-0.001,1.61,0.063,2.011,0.132l-0.037-0.007
						l0.09,0.02l0.004-0.016l-0.006,0.013l0.002,0.003l0.004-0.016l-0.006,0.013l0.296-0.706l-0.4,0.652l0.104,0.054l0.296-0.706
						l-0.4,0.652l0.051,0.03l0.055,0.031l0.439-0.744l-0.564,0.657l0.125,0.087l0.439-0.744l-0.564,0.657l0.261-0.303l-0.286,0.28
						l0.025,0.022l0.261-0.303l-0.286,0.28l0.011,0.013l-0.027-0.034l0.549-0.459l-0.672,0.243l0.123,0.216l0.549-0.459
						l-0.672,0.243v-0.003l0.579-0.21h-0.621l0.042,0.21l0.579-0.21h-0.621v0.033l0.361,0.022l-0.353-0.07l-0.008,0.048l0.361,0.022
						l-0.353-0.07l1.337,0.266L75,17.572c-0.139,0.144-0.299,0.492-0.31,0.619l1.337,0.266L75,17.572l0.681,0.585l-0.606-0.664
						L75,17.572l0.681,0.585l-0.606-0.664l0.169,0.188l-0.152-0.201l-0.017,0.014l0.169,0.188l-0.152-0.201
						c-0.007,0.004-0.089,0.066-0.283,0.156l0.79,12.549c0.379,0.119,0.583,0.232,0.639,0.269l0.022,0.012l0.178-0.252l-0.207,0.23
						l0.029,0.021l0.178-0.252l-0.207,0.23l0.85-0.947l-1.166,0.485c0.068,0.178,0.242,0.404,0.316,0.462l0.85-0.947l-1.166,0.485
						l0.787-0.328l-0.842,0.155l0.055,0.173l0.787-0.328l-0.842,0.155l0.075-0.014l-0.075,0.011v0.003l0.075-0.014l-0.075,0.011
						l0.004,0.116l-0.014,0.17l0.011,0.002l-0.01-0.005l0,0.003l0.011,0.002l-0.01-0.005l-0.008,0.016l-0.01,0.015l0,0l-0.011,0.018
						l0.116,0.086l-0.104-0.102l-0.013,0.016l0.116,0.086l-0.104-0.102l0.304,0.294l-0.24-0.349l-0.064,0.055l0.304,0.294
						l-0.24-0.349l0.148,0.215l-0.128-0.227l-0.02,0.012l0.148,0.215l-0.128-0.227l-0.007,0.005l2.701,6.183L76,30.02
						c-0.129,0.055-0.412,0.148-0.893,0.212l-0.021,0.002l-0.02,0.002c-0.587,0.079-1.475,0.142-2.58,0.139V37.123v6.751
						c1.543-0.003,2.985-0.073,4.387-0.261l-0.039,0.006c1.512-0.196,2.988-0.564,4.39-1.154l0.044-0.018l0.044-0.02
						c1.195-0.52,2.337-1.227,3.345-2.093c1.008-0.868,1.875-1.886,2.568-2.98l-0.009,0.014c1.426-2.204,2.162-4.884,2.146-7.446
						c0-1.37-0.188-2.791-0.639-4.181c-0.66-2.091-1.973-4.051-3.61-5.46c-1.637-1.425-3.503-2.345-5.409-2.954l-2.054,6.428
						l2.844,6.119c1.051-0.488,2.073-1.091,3.025-1.854c1.427-1.13,2.684-2.653,3.492-4.396c0.819-1.742,1.173-3.636,1.167-5.418
						c0.004-1.486-0.261-3.007-0.769-4.396v-0.004c-0.502-1.389-1.268-2.707-2.206-3.823l-0.017-0.021l-0.012-0.014
						c-0.882-1.05-2.001-2.041-3.302-2.806l-3.431,5.812l3.537-5.747c-1.511-0.934-3.169-1.495-4.759-1.766l-0.023-0.005
						l-0.014-0.002C75.828,5.21,74.439,5.12,72.949,5.12h-8.152c-1.052,0.003-2.18,0.107-3.418,0.49
						c-1.226,0.378-2.597,1.092-3.729,2.235l0.007-0.008c-1.155,1.155-1.854,2.535-2.223,3.758
						c-0.374,1.236-0.475,2.355-0.479,3.407v18.988c0.003,1.039,0.105,2.142,0.463,3.352c0.356,1.198,1.016,2.535,2.109,3.685
						l-0.008-0.008c1.156,1.228,2.586,1.977,3.835,2.361c1.263,0.39,2.391,0.489,3.443,0.493h7.69V37.123z"/>
				</g>
				<g>
					<path fill="#FFFFFF" d="M103.588,15.818V9.07H85.359v19.704h17.32V25.54l-0.929,3.08c0.51,0.15,0.813,0.152,0.929,0.154V25.54
						l-0.929,3.08l1.417-4.7l-3.301,3.612c0.66,0.605,1.387,0.94,1.884,1.088l1.417-4.7l-3.301,3.612l0.028,0.024l0.025,0.023
						l3.387-3.785l-4.694,1.937c0.281,0.695,0.784,1.391,1.307,1.849l3.387-3.785l-4.694,1.937l4.361-1.8h-4.729
						c-0.001,0.448,0.079,1.101,0.368,1.8l4.361-1.8h-4.729h4.667l-4.321-1.734c-0.265,0.657-0.347,1.285-0.346,1.734h4.667
						l-4.321-1.734l4.617,1.853l-3.438-3.598c-0.475,0.443-0.924,1.09-1.179,1.745l4.617,1.853l-3.438-3.598l0.03-0.028l3.368,3.569
						l-1.459-4.701c-0.521,0.156-1.264,0.517-1.908,1.132l3.368,3.569l-1.459-4.701l0.972,3.13v-3.298
						c-0.12,0.002-0.442,0.005-0.972,0.168l0.972,3.13v-3.298h-17.32v20.691h18.622v-3.199l-0.937,3.039
						c0.503,0.153,0.815,0.158,0.937,0.16v-3.199l-0.937,3.039l1.412-4.572l-3.226,3.518c0.617,0.569,1.317,0.907,1.814,1.055
						l1.412-4.572l-3.226,3.518l0.016,0.016l0.021,0.017l3.315-3.668l-4.571,1.881c0.269,0.671,0.75,1.341,1.256,1.787l3.315-3.668
						l-4.571,1.881l4.208-1.73h-4.563c-0.002,0.43,0.078,1.058,0.354,1.73l4.208-1.73h-4.563h4.679l-4.3-1.818
						c-0.289,0.679-0.38,1.345-0.378,1.818h4.679l-4.3-1.818l4.544,1.92l-3.302-3.668c-0.485,0.427-0.961,1.071-1.242,1.748
						l4.544,1.92l-3.302-3.668l-0.03,0.025l-0.017,0.017l3.226,3.516l-1.412-4.572c-0.497,0.149-1.197,0.487-1.814,1.057
						l3.226,3.516l-1.412-4.572l0.937,3.039v-3.199c-0.122,0.003-0.434,0.008-0.937,0.16l0.937,3.039v-3.199H90.134v0.016
						l0.001-0.016h-0.001v0.016l0.001-0.016l-0.157,2.643l0.902-2.466c-0.448-0.161-0.694-0.172-0.745-0.177l-0.157,2.643
						l0.902-2.466l-1.571,4.29l3.244-3.194c-0.579-0.591-1.235-0.938-1.673-1.096l-1.571,4.29l3.244-3.194l-3.133,3.086l4.229-1.297
						c-0.124-0.419-0.45-1.136-1.096-1.789l-3.133,3.086l4.229-1.297l-2.659,0.815l2.761-0.355c-0.013-0.091-0.038-0.245-0.103-0.46
						l-2.659,0.815l2.761-0.355l-1.327,0.168l1.335-0.079l-0.008-0.089l-1.327,0.168l1.335-0.079l-0.427,0.025l0.43-0.011
						l-0.003-0.015l-0.427,0.025l0.43-0.011l-0.003-0.008V15.003v-0.004l-2.822-0.111l2.514,1.178
						c0.308-0.67,0.303-1.038,0.308-1.066l-2.822-0.111l2.514,1.178l0.009-0.018l-0.002,0.006l-4.208-1.961l3.279,3.279
						c0.419-0.416,0.737-0.901,0.929-1.318l-4.208-1.961l3.279,3.279l-3.317-3.319l1.948,4.273c0.449-0.202,0.954-0.536,1.37-0.954
						l-3.317-3.319l1.948,4.273l0.014-0.008l-1.445-3.154l0.613,3.427c0.171-0.031,0.457-0.1,0.833-0.272l-1.445-3.154l0.613,3.427
						l-0.329-1.838l0.149,1.86l0.179-0.022l-0.329-1.838l0.149,1.86l-0.061-0.747l0.03,0.75l0.031-0.003l-0.061-0.747l0.03,0.75
						h0.003h13.454v-3.069l-0.877,2.921c0.497,0.146,0.781,0.146,0.877,0.148v-3.069l-0.877,2.921l1.397-4.648l-3.268,3.566
						c0.662,0.61,1.386,0.94,1.871,1.082l1.397-4.648l-3.268,3.566l-0.028-0.023l3.359-3.627l-4.56,1.897
						c0.271,0.67,0.734,1.305,1.201,1.729l3.359-3.627l-4.56,1.897l4.325-1.801h-4.696c-0.002,0.474,0.091,1.134,0.371,1.801
						l4.325-1.801h-4.696h4.622l-4.265-1.749c-0.277,0.668-0.359,1.308-0.357,1.749h4.622l-4.265-1.749l4.577,1.877l-3.366-3.629
						c-0.48,0.435-0.944,1.084-1.211,1.752l4.577,1.877l-3.366-3.629l0.035-0.033l3.265,3.57l-1.393-4.65
						c-0.484,0.141-1.207,0.469-1.872,1.08l3.265,3.57l-1.393-4.65l0.872,2.912V9.07c-0.093,0.003-0.376,0.003-0.872,0.147
						l0.872,2.912V9.07V15.818v6.748c0.907-0.002,1.899-0.092,2.998-0.419c1.087-0.321,2.308-0.919,3.366-1.887l0.017-0.017
						l0.018-0.019c0.873-0.799,1.635-1.872,2.1-3.021c0.473-1.15,0.654-2.331,0.652-3.372c0.002-1.056-0.188-2.244-0.667-3.388
						c-0.472-1.144-1.228-2.198-2.089-2.987l-0.014-0.014l-0.011-0.01c-1.056-0.97-2.276-1.57-3.366-1.894
						c-1.1-0.326-2.092-0.419-3.003-0.42H90.134c-1.373,0.009-2.9,0.172-4.588,0.932l0.014-0.007
						c-0.913,0.414-1.82,1.024-2.574,1.782c-0.76,0.756-1.354,1.644-1.761,2.524l0.005-0.012c-0.784,1.7-0.958,3.257-0.968,4.663
						v18.988c0.004,1.05,0.108,2.168,0.48,3.4c0.369,1.216,1.059,2.58,2.192,3.729c1.149,1.172,2.545,1.892,3.776,2.268
						c1.247,0.381,2.372,0.482,3.422,0.486h13.847c0.925-0.003,1.938-0.104,3.045-0.443c1.1-0.333,2.304-0.95,3.325-1.892
						l-0.046,0.042c0.894-0.797,1.679-1.871,2.164-3.031c0.493-1.163,0.688-2.367,0.684-3.435c0.003-1.052-0.178-2.239-0.661-3.408
						c-0.474-1.168-1.261-2.271-2.177-3.089l0.036,0.034c-1.021-0.942-2.226-1.558-3.325-1.894c-1.107-0.34-2.12-0.437-3.045-0.441
						h-5.125v-0.445h-6.748v6.748h10.572c0.913-0.001,1.919-0.098,3.033-0.438c1.102-0.337,2.327-0.971,3.351-1.943l0.021-0.021
						l0.008-0.008c0.849-0.804,1.578-1.863,2.023-2.986c0.453-1.125,0.629-2.272,0.627-3.292c0.002-1.018-0.173-2.188-0.652-3.348
						c-0.47-1.159-1.26-2.256-2.172-3.063l-4.5,5.029l4.552-4.981c-1.04-0.953-2.246-1.55-3.324-1.871
						c-1.09-0.325-2.072-0.416-2.969-0.419H92.108v6.749h6.748v-6.209h-6.748v6.748h11.48V15.818z"/>
				</g>
				<g>
					<path fill="#FFFFFF" d="M120.217,15.713V8.965h-11.452v20.446h11.312c1.614-0.005,3.153-0.127,4.748-0.524l0.046-0.012
						l-0.04,0.01c0.914-0.232,1.854-0.58,2.783-1.107c0.926-0.525,1.832-1.243,2.59-2.13l-0.007,0.009
						c0.859-0.992,1.467-2.163,1.818-3.289c0.354-1.133,0.476-2.218,0.477-3.222c0-0.91-0.117-1.883-0.395-2.851
						c-0.275-0.967-0.717-1.92-1.28-2.761l0.034,0.054c-0.545-0.835-1.239-1.607-2.021-2.239c-0.783-0.636-1.642-1.131-2.501-1.487
						l0.06,0.024c-0.707-0.299-1.274-0.446-1.795-0.56c-0.78-0.166-1.463-0.24-2.172-0.292c-0.705-0.05-1.427-0.069-2.204-0.069
						V15.713v6.749c0.714-0.002,1.244,0.029,1.476,0.056l0.109,0.012l0.006,0.002l0.569-3.281l-1.304,3.043
						c0.538,0.223,0.718,0.229,0.734,0.238l0.569-3.281l-1.304,3.043l0.034,0.016l0.026,0.011l1.279-3.069l-2.091,2.577
						c0.289,0.236,0.586,0.397,0.812,0.492l1.279-3.069l-2.091,2.577l2.315-2.854l-3.075,2.017c0.196,0.299,0.468,0.604,0.76,0.838
						l2.315-2.854l-3.075,2.017l0.019,0.028l0.018,0.025l3.049-2.041l-3.528,1.01c0.097,0.35,0.273,0.727,0.479,1.031l3.049-2.041
						l-3.528,1.01l3.021-0.866h-3.15c0,0.206,0.027,0.517,0.129,0.866l3.021-0.866h-3.15h2.768l-2.623-0.824
						c-0.134,0.43-0.144,0.716-0.145,0.824h2.768l-2.623-0.824l3.986,1.253l-3.161-2.718c-0.419,0.482-0.697,1.043-0.826,1.465
						l3.986,1.253l-3.161-2.718l-0.007,0.008l2.813,2.413l-1.838-3.227c-0.289,0.161-0.656,0.438-0.975,0.813l2.813,2.413
						l-1.838-3.227l1.155,2.03l-0.576-2.277c-0.083,0.021-0.29,0.081-0.58,0.247l1.155,2.03l-0.576-2.277l0.003-0.002
						c-0.078,0.025-0.603,0.116-1.437,0.112h-4.563v6.749h6.749v-6.95h-6.749v6.749h4.703V15.713z M117.3,26.329v-6.747h-1.786
						h-6.75V34.43v0.008l2.254,0.064l-2.123-0.688c-0.131,0.41-0.129,0.614-0.131,0.623l2.254,0.064l-2.123-0.688l4.161,1.348
						l-3.192-2.963c-0.542,0.576-0.841,1.209-0.968,1.615l4.161,1.348l-3.192-2.963l-0.008,0.007l3.267,3.022l-1.693-4.112
						c-0.6,0.243-1.189,0.666-1.573,1.09l3.267,3.022l-1.693-4.112l1.547,3.758v-4.076c-0.373-0.001-0.945,0.07-1.547,0.318
						l1.547,3.758v-4.076v3.963l1.526-3.638c-0.647-0.271-1.208-0.326-1.526-0.325v3.963l1.526-3.638l-1.785,4.261l3.536-2.971
						c-0.43-0.524-1.105-1.028-1.75-1.29l-1.785,4.261l3.536-2.971l-0.013-0.015l-3.145,2.654l3.976-1.142
						c-0.103-0.368-0.355-0.956-0.831-1.513l-3.145,2.654l3.976-1.142l-2.568,0.739l2.654-0.329
						c-0.011-0.086-0.032-0.226-0.085-0.41l-2.568,0.739l2.654-0.329l-1.396,0.172l1.405-0.081l-0.009-0.091l-1.396,0.172
						l1.405-0.081l-0.324,0.018h0.326l-0.001-0.018l-0.324,0.018h0.326V15.003v-0.008l-2.299-0.066l2.157,0.724
						c0.144-0.438,0.14-0.649,0.142-0.657l-2.299-0.066l2.157,0.724l-4.238-1.422l3.155,3.137c0.608-0.609,0.944-1.287,1.083-1.715
						l-4.238-1.422l3.155,3.137l-3.139-3.121l1.321,4.252c0.433-0.128,1.167-0.471,1.818-1.131l-3.139-3.121l1.321,4.252
						l-0.845-2.719l0.369,2.828c0.096-0.014,0.253-0.04,0.476-0.109l-0.845-2.719l0.369,2.828l-0.182-1.398l0.084,1.407l0.098-0.009
						l-0.182-1.398l0.084,1.407l-0.031-0.498l0.015,0.498h0.016l-0.031-0.498l0.015,0.498h0.007h8.287
						c0.956-0.001,1.689,0.045,2.118,0.098l-0.006-0.001l0.227,0.04l0.014,0.005l0.113-0.36l-0.158,0.342l0.045,0.019l0.113-0.36
						l-0.158,0.342l0.094,0.043l0.098,0.042l0.12-0.283l-0.172,0.253l0.053,0.03l0.12-0.283l-0.172,0.253l0.152-0.222l-0.173,0.206
						l0.021,0.016l0.152-0.222l-0.173,0.206l0.043-0.053l-0.047,0.051l0.003,0.002l0.043-0.053l-0.047,0.051l0.004,0.005l4.8-4.744
						l-4.854,4.688l0.278-0.269l-0.359,0.137l0.081,0.132l0.278-0.269l-0.359,0.137l0.008,0.021l0.006,0.014
						c0.009,0.032,0.02,0.033,0.022,0.188c0,0.155-0.01,0.253-0.017,0.3l-0.005,0.031l0.276,0.062l-0.267-0.094l-0.009,0.032
						l0.276,0.062l-0.267-0.094l1.108,0.396l-0.852-0.801l-0.256,0.404l1.108,0.396l-0.852-0.801l0.01-0.011l0.54,0.509l-0.487-0.56
						l-0.053,0.051l0.54,0.509l-0.487-0.56l0.134,0.155l-0.123-0.166l-0.011,0.011l0.134,0.155l-0.123-0.166
						c-0.001,0.011-0.427,0.282-1.411,0.492l-1.739,12.545c0.039,0.019,0.307,0.183,0.707,0.64l-0.022-0.026
						c0.575,0.659,1.086,1.357,1.528,2.084l-0.008-0.015c0.528,0.869,0.88,1.561,1.071,2.013l-0.015-0.033
						c0.063,0.146,0.109,0.265,0.139,0.345l0.039,0.108l0.771-0.251l-0.782,0.219l0.01,0.032l0.771-0.251l-0.782,0.219l3.353-0.934
						l-3.425,0.601c0.032,0.188,0.06,0.284,0.072,0.333l3.353-0.934l-3.425,0.601l5.286-0.928h-5.364
						c0.001,0.466,0.046,0.74,0.078,0.928l5.286-0.928h-5.364h5.121l-4.879-1.559c-0.148,0.456-0.245,1.008-0.242,1.559h5.121
						l-4.879-1.559l4.413,1.41l-3.906-2.501c-0.17,0.267-0.361,0.632-0.507,1.091l4.413,1.41l-3.906-2.501l-0.008,0.012l3.804,2.425
						l-2.072-4.018c-0.566,0.273-1.305,0.894-1.732,1.593l3.804,2.425l-2.072-4.018l0.006-0.005l1.814,3.528v-3.994
						c-0.385-0.004-1.073,0.085-1.814,0.466l1.814,3.528v-3.994v3.851l1.04-3.7c-0.43-0.122-0.791-0.15-1.04-0.15v3.851l1.04-3.7
						l-1.232,4.388l2.588-3.749c-0.438-0.303-0.929-0.521-1.355-0.639l-1.232,4.388l2.588-3.749l0.029,0.021l-1.585,2.269
						l2.292-1.565c-0.135-0.203-0.392-0.484-0.707-0.703l-1.585,2.269l2.292-1.565l-0.01-0.015v0.001
						c-0.12-0.173-0.469-0.727-0.916-1.473l-2.046-3.411l-5.787,3.473l5.823-3.413c-0.875-1.482-1.695-2.722-2.714-3.893
						l-0.004-0.005c-1.065-1.204-2.432-2.378-4.285-3.14l-0.012-0.005l0.002,0.002c-1.723-0.687-3.292-0.844-4.778-0.852V26.329
						v6.749l0.164,0.006l0.025,0.002l0.271-1.988l-0.749,1.845c0.3,0.122,0.461,0.139,0.479,0.144l0.271-1.988l-0.749,1.845
						l-0.01-0.006l1.081-2.651l-1.745,2.285c0.116,0.089,0.339,0.236,0.664,0.366l1.081-2.651l-1.745,2.285l0.804-1.055
						l-0.914,0.963l0.11,0.092l0.804-1.055l-0.914,0.963l0.139-0.145l-0.146,0.139l0.006,0.006l0.139-0.145l-0.146,0.139
						l0.022,0.022l-0.006-0.005c0.129,0.135,0.624,0.798,1.208,1.809l0.019,0.028l2.063,3.44c0.511,0.85,0.922,1.521,1.367,2.172
						l-0.01-0.015c0.697,1.024,1.62,1.992,2.709,2.754l0.02,0.011l0.01,0.009c0.829,0.572,1.756,0.993,2.664,1.246
						c0.911,0.255,1.794,0.353,2.61,0.353c1.347,0.004,2.889-0.271,4.358-1.027l0.007-0.006c1.302-0.653,2.615-1.79,3.464-3.149
						l-0.009,0.012c0.38-0.595,0.73-1.288,0.981-2.077c0.252-0.786,0.402-1.667,0.4-2.55c-0.005-0.71-0.084-1.19-0.164-1.604
						c-0.123-0.611-0.264-1.063-0.412-1.499c-0.149-0.434-0.308-0.841-0.483-1.26l-0.007-0.016l-0.008-0.019
						c-0.537-1.265-1.189-2.476-1.95-3.735l-0.01-0.015c-0.847-1.39-1.812-2.704-2.877-3.927l-0.016-0.02l-0.005-0.008
						c-1.251-1.418-2.718-2.683-4.482-3.627l-3.18,5.952l1.442,6.595c1.512-0.333,2.975-0.807,4.379-1.503
						c1.401-0.696,2.752-1.633,3.901-2.854l0.013-0.013l-0.001,0.001c1.175-1.245,2.085-2.772,2.637-4.356
						c0.558-1.588,0.778-3.209,0.778-4.776c0.003-1.691-0.302-3.432-0.926-5.044l0.012,0.035c-0.628-1.673-1.616-3.209-2.831-4.46
						l-0.025-0.027l-0.027-0.027c-1.193-1.214-2.667-2.228-4.267-2.9l-2.631,6.216l2.825-6.13c-1.392-0.641-2.821-0.994-4.197-1.163
						h-0.007c-1.2-0.146-2.42-0.196-3.751-0.196h-8.287c-1.054,0.003-2.18,0.107-3.422,0.488c-1.228,0.375-2.606,1.089-3.75,2.243
						c-1.142,1.145-1.843,2.515-2.215,3.738c-0.378,1.235-0.481,2.359-0.485,3.413V34.43c0.001,0.999,0.102,2.066,0.431,3.214
						c0.324,1.141,0.91,2.38,1.832,3.466l-0.014-0.016c0.872,1.053,2.089,1.955,3.364,2.478c1.28,0.539,2.563,0.729,3.694,0.726
						c1.125,0.003,2.379-0.195,3.595-0.698c1.212-0.492,2.343-1.297,3.194-2.227l0.017-0.02l-0.024,0.026
						c1.045-1.124,1.698-2.442,2.048-3.628c0.353-1.2,0.455-2.296,0.457-3.321v-8.101h-6.749v6.749h1.786V26.329z"/>
				</g>
				<rect x="22.86" y="21.226" fill="#FFFFFF" width="3.992" height="6.487"/>
			</g>
			<g>
				<path fill="#0674B7" d="M35.205,29.147c0,0.803-0.194,1.675-0.592,2.607c-0.394,0.937-1.014,1.853-1.863,2.752
					c-0.843,0.905-1.927,1.634-3.239,2.199c-1.317,0.559-2.852,0.839-4.603,0.839c-1.324,0-2.53-0.12-3.62-0.374
					c-1.085-0.254-2.074-0.647-2.959-1.184c-0.884-0.527-1.704-1.232-2.449-2.104c-0.66-0.793-1.229-1.675-1.699-2.656
					c-0.468-0.982-0.82-2.035-1.054-3.145c-0.234-1.117-0.35-2.301-0.35-3.551c0-2.029,0.292-3.852,0.884-5.457
					c0.586-1.609,1.434-2.985,2.53-4.127c1.101-1.14,2.383-2.01,3.859-2.61c1.477-0.593,3.052-0.893,4.721-0.893
					c2.04,0,3.849,0.406,5.441,1.223c1.588,0.811,2.806,1.822,3.655,3.021c0.844,1.199,1.271,2.328,1.271,3.398
					c0,0.588-0.21,1.099-0.619,1.551c-0.411,0.447-0.908,0.671-1.495,0.671c-0.65,0-1.141-0.159-1.464-0.464
					c-0.328-0.313-0.69-0.847-1.089-1.605c-0.667-1.252-1.448-2.187-2.343-2.81c-0.902-0.618-2.003-0.93-3.322-0.93
					c-2.096,0-3.759,0.8-5,2.394c-1.243,1.599-1.863,3.868-1.863,6.808c0,1.963,0.275,3.597,0.826,4.902
					c0.544,1.306,1.324,2.276,2.331,2.922c1.008,0.64,2.185,0.966,3.537,0.966c1.465,0,2.702-0.365,3.712-1.094
					c1.016-0.731,1.777-1.801,2.291-3.217c0.217-0.665,0.487-1.206,0.809-1.629c0.317-0.418,0.832-0.629,1.541-0.629
					c0.609,0,1.13,0.211,1.564,0.641C34.988,27.986,35.205,28.517,35.205,29.147"/>
				<path fill="#0674B7" d="M45.395,34.43v-8.005l-6.144-9.554c-0.538-0.864-0.92-1.534-1.142-2.016
					c-0.222-0.482-0.334-0.899-0.334-1.259c0-0.582,0.228-1.088,0.679-1.517c0.451-0.423,1.008-0.635,1.675-0.635
					c0.697,0,1.225,0.199,1.588,0.594c0.358,0.394,0.895,1.182,1.617,2.363l4.702,7.659l4.757-7.659
					c0.281-0.47,0.52-0.864,0.721-1.188c0.192-0.317,0.403-0.617,0.645-0.899c0.233-0.282,0.492-0.499,0.778-0.647
					c0.287-0.146,0.633-0.223,1.049-0.223c0.638,0,1.171,0.212,1.598,0.629c0.435,0.418,0.645,0.905,0.645,1.452
					c0,0.446-0.105,0.899-0.322,1.347c-0.217,0.446-0.591,1.063-1.12,1.857l-6.296,9.694v8.005c0,1.05-0.24,1.824-0.721,2.341
					c-0.479,0.517-1.094,0.774-1.833,0.774c-0.754,0-1.37-0.249-1.839-0.761C45.629,36.271,45.395,35.488,45.395,34.43"/>
				<path fill="#0674B7" d="M66.798,15.713v6.525h4.673c1.273,0,2.251-0.123,2.943-0.364c0.696-0.241,1.222-0.699,1.591-1.376
					c0.287-0.48,0.429-1.022,0.429-1.616c0-1.276-0.453-2.122-1.361-2.54c-0.901-0.417-2.283-0.629-4.133-0.629H66.798z
					 M72.105,25.906h-5.307v7.372h5.476c3.45,0,5.171-1.245,5.171-3.738c0-1.277-0.443-2.2-1.341-2.775
					C75.215,26.193,73.879,25.906,72.105,25.906z M72.486,37.123h-7.692c-1.112,0-1.903-0.245-2.376-0.746
					c-0.475-0.499-0.716-1.299-0.716-2.386V15.003c0-1.112,0.246-1.911,0.733-2.399s1.27-0.735,2.359-0.735h8.155
					c1.2,0,2.244,0.076,3.121,0.224c0.887,0.153,1.676,0.436,2.373,0.863c0.598,0.354,1.119,0.807,1.582,1.354
					c0.457,0.547,0.802,1.146,1.043,1.805c0.241,0.665,0.363,1.357,0.363,2.093c0,2.528-1.259,4.379-3.777,5.549
					c3.308,1.059,4.96,3.11,4.96,6.167c0,1.412-0.362,2.686-1.083,3.814c-0.72,1.136-1.694,1.971-2.917,2.506
					c-0.768,0.323-1.646,0.554-2.642,0.683C74.974,37.057,73.81,37.123,72.486,37.123z"/>
				<path fill="#0674B7" d="M103.586,15.818H92.107v6.209h10.571c0.779,0,1.36,0.176,1.74,0.522
					c0.387,0.347,0.575,0.812,0.575,1.382s-0.188,1.04-0.563,1.398c-0.38,0.359-0.96,0.542-1.751,0.542H92.107v7.193h11.871
					c0.802,0,1.407,0.188,1.81,0.562c0.41,0.368,0.615,0.869,0.615,1.488c0,0.592-0.205,1.081-0.615,1.45
					c-0.403,0.37-1.008,0.558-1.81,0.558H90.131c-1.106,0-1.901-0.245-2.388-0.741c-0.486-0.492-0.732-1.292-0.732-2.391V15.003
					c0-0.735,0.112-1.336,0.329-1.801c0.217-0.463,0.555-0.805,1.019-1.016c0.462-0.213,1.055-0.318,1.773-0.318h13.455
					c0.814,0,1.418,0.184,1.81,0.541c0.392,0.365,0.592,0.841,0.592,1.423c0,0.6-0.2,1.081-0.592,1.446
					C105.004,15.637,104.4,15.818,103.586,15.818"/>
				<path fill="#0674B7" d="M120.216,15.713h-4.703v6.95h4.562c1.223,0,2.256-0.107,3.094-0.319c0.831-0.21,1.468-0.575,1.908-1.086
					c0.44-0.513,0.662-1.218,0.662-2.112c0-0.705-0.174-1.321-0.533-1.856c-0.352-0.536-0.843-0.936-1.476-1.199
					C123.14,15.836,121.966,15.713,120.216,15.713 M117.298,26.329h-1.785v8.101c0,1.069-0.235,1.855-0.704,2.358
					c-0.47,0.508-1.084,0.757-1.833,0.757c-0.815,0-1.447-0.263-1.892-0.792c-0.445-0.529-0.668-1.3-0.668-2.323V15.003
					c0-1.1,0.247-1.899,0.739-2.394c0.49-0.494,1.288-0.741,2.384-0.741h8.288c1.144,0,2.122,0.047,2.934,0.146
					c0.815,0.101,1.547,0.295,2.197,0.595c0.791,0.335,1.488,0.812,2.099,1.428c0.602,0.623,1.065,1.347,1.375,2.164
					c0.315,0.822,0.475,1.693,0.475,2.616c0,1.88-0.527,3.386-1.587,4.515c-1.061,1.122-2.665,1.922-4.816,2.392
					c0.903,0.482,1.769,1.195,2.595,2.132c0.82,0.943,1.559,1.949,2.203,3.007c0.645,1.063,1.148,2.018,1.513,2.874
					c0.356,0.854,0.538,1.443,0.538,1.763c0,0.331-0.105,0.659-0.317,0.988c-0.209,0.331-0.497,0.588-0.865,0.777
					c-0.364,0.188-0.792,0.28-1.272,0.28c-0.568,0-1.048-0.132-1.44-0.403c-0.386-0.271-0.721-0.613-1.003-1.023
					c-0.28-0.411-0.66-1.023-1.14-1.823l-2.044-3.408c-0.732-1.248-1.388-2.198-1.964-2.851c-0.578-0.659-1.164-1.106-1.76-1.349
					C118.951,26.448,118.202,26.329,117.298,26.329z"/>
			</g>
		</g>
	</g>
	<g>
		<path fill="#FFFFFF" d="M280.548,25.063c-0.258-0.43-0.596-0.706-1.014-0.832c-0.417-0.124-0.928-0.187-1.53-0.187h-4.909
			c-0.591,0-1.061,0.181-1.404,0.543c-0.346,0.363-0.518,0.822-0.518,1.376c0,0.679,0.206,1.16,0.618,1.443
			c0.413,0.282,1.022,0.425,1.828,0.425h3.352v4.04c-0.903,0.566-1.794,1.003-2.673,1.309c-0.88,0.306-1.819,0.458-2.819,0.458
			c-2.06,0-3.664-0.787-4.814-2.36c-1.151-1.573-1.727-3.82-1.727-6.741c0-1.348,0.147-2.576,0.444-3.685
			c0.296-1.109,0.724-2.045,1.282-2.811c0.558-0.763,1.231-1.346,2.018-1.748c0.787-0.402,1.68-0.604,2.681-0.604
			c0.972,0,1.77,0.169,2.396,0.51c0.628,0.339,1.125,0.758,1.493,1.256c0.369,0.497,0.821,1.234,1.355,2.207
			c0.194,0.307,0.434,0.543,0.722,0.714c0.286,0.169,0.584,0.254,0.896,0.254c0.563,0,1.046-0.224,1.449-0.671
			c0.402-0.447,0.605-0.987,0.605-1.621c0-0.589-0.176-1.262-0.524-2.021c-0.351-0.757-0.87-1.477-1.559-2.156
			c-0.69-0.679-1.589-1.242-2.695-1.69c-1.107-0.447-2.38-0.67-3.817-0.67c-1.748,0-3.313,0.297-4.69,0.891
			c-1.38,0.594-2.549,1.452-3.512,2.572c-0.961,1.122-1.689,2.485-2.185,4.092c-0.496,1.608-0.743,3.378-0.743,5.315
			c0,1.97,0.255,3.753,0.765,5.349c0.511,1.597,1.241,2.955,2.193,4.075c0.951,1.121,2.102,1.976,3.452,2.563
			c1.35,0.59,2.846,0.884,4.487,0.884c1.408,0,2.709-0.187,3.903-0.561c1.195-0.373,2.438-0.968,3.729-1.783
			c0.447-0.282,0.813-0.577,1.1-0.882c0.286-0.306,0.482-0.648,0.59-1.027c0.107-0.38,0.161-0.887,0.161-1.521V27
			C280.934,26.139,280.804,25.494,280.548,25.063z M243.72,13.585c-0.22-0.396-0.433-0.718-0.641-0.967
			c-0.21-0.25-0.452-0.448-0.729-0.594c-0.277-0.147-0.609-0.221-0.999-0.221c-0.494,0-0.956,0.161-1.384,0.483
			s-0.733,0.739-0.918,1.248c-0.154,0.464-0.232,1.104-0.232,1.918v19.206c0,0.939,0.185,1.655,0.553,2.147
			c0.37,0.491,0.86,0.738,1.473,0.738c0.591,0,1.077-0.244,1.457-0.73c0.378-0.486,0.567-1.206,0.567-2.155V20.071l8.114,14.501
			c0.232,0.396,0.466,0.784,0.699,1.163c0.233,0.38,0.485,0.711,0.758,0.994c0.271,0.282,0.563,0.489,0.873,0.619
			c0.312,0.13,0.662,0.195,1.049,0.195c1.555,0,2.332-1.093,2.332-3.277V14.689c0-0.962-0.181-1.684-0.539-2.165
			c-0.359-0.482-0.851-0.722-1.473-0.722c-0.602,0-1.08,0.24-1.435,0.722c-0.354,0.48-0.532,1.202-0.532,2.165v14.806l-8.316-14.671
			C244.163,14.394,243.938,13.981,243.72,13.585z M230.201,36.771c0.402,0.516,0.915,0.773,1.536,0.773
			c0.651,0,1.179-0.255,1.581-0.765c0.403-0.509,0.604-1.278,0.604-2.31V14.858c0-1.03-0.201-1.797-0.604-2.301
			c-0.402-0.503-0.93-0.755-1.581-0.755c-0.632,0-1.146,0.254-1.544,0.764s-0.597,1.273-0.597,2.292V34.47
			C229.597,35.489,229.798,36.256,230.201,36.771z M226.304,15.818c0.369-0.379,0.553-0.879,0.553-1.502s-0.182-1.127-0.545-1.512
			c-0.365-0.385-0.921-0.577-1.669-0.577h-13.752c-0.71,0-1.25,0.187-1.624,0.56s-0.561,0.883-0.561,1.529
			c0,0.623,0.179,1.123,0.539,1.502c0.359,0.379,0.907,0.569,1.646,0.569h4.72V34.47c0,1.031,0.201,1.801,0.604,2.31
			c0.402,0.51,0.926,0.765,1.566,0.765c0.632,0,1.146-0.252,1.545-0.756c0.398-0.504,0.596-1.275,0.596-2.318V16.387h4.721
			C225.381,16.387,225.935,16.197,226.304,15.818z M206.484,15.58c0.335-0.356,0.502-0.828,0.502-1.417
			c0-0.578-0.167-1.044-0.502-1.4c-0.335-0.358-0.848-0.535-1.537-0.535h-11.421c-0.612,0-1.114,0.105-1.508,0.314
			s-0.683,0.542-0.867,1.001c-0.185,0.458-0.276,1.05-0.276,1.774v18.712c0,1.086,0.207,1.873,0.619,2.36
			c0.413,0.486,1.089,0.729,2.032,0.729h11.756c0.68,0,1.192-0.184,1.537-0.552c0.345-0.367,0.518-0.847,0.518-1.435
			c0-0.611-0.173-1.101-0.518-1.469c-0.345-0.367-0.857-0.553-1.537-0.553h-10.081v-7.08h8.974c0.671,0,1.165-0.178,1.485-0.535
			s0.481-0.818,0.481-1.383c0-0.566-0.162-1.022-0.488-1.367c-0.325-0.346-0.818-0.518-1.479-0.518h-8.974v-6.113h9.746
			C205.637,16.115,206.149,15.937,206.484,15.58z M186.585,15.58c0.335-0.356,0.502-0.828,0.502-1.417
			c0-0.578-0.167-1.044-0.502-1.4c-0.335-0.358-0.848-0.535-1.538-0.535h-11.42c-0.612,0-1.114,0.105-1.508,0.314
			s-0.683,0.542-0.867,1.001c-0.185,0.458-0.277,1.05-0.277,1.774v18.712c0,1.086,0.207,1.873,0.62,2.36
			c0.413,0.486,1.089,0.729,2.032,0.729h11.756c0.68,0,1.191-0.184,1.537-0.552c0.345-0.367,0.518-0.847,0.518-1.435
			c0-0.611-0.173-1.101-0.518-1.469c-0.346-0.367-0.857-0.553-1.537-0.553h-10.081v-7.08h8.974c0.671,0,1.165-0.178,1.485-0.535
			s0.481-0.818,0.481-1.383c0-0.566-0.162-1.022-0.488-1.367c-0.325-0.346-0.818-0.518-1.479-0.518h-8.974v-6.113h9.745
			C185.737,16.115,186.25,15.937,186.585,15.58z M153.676,34.87c0.111,0.48,0.265,0.919,0.459,1.315s0.467,0.722,0.816,0.977
			c0.35,0.254,0.776,0.382,1.281,0.382c0.67,0,1.194-0.198,1.574-0.594c0.379-0.396,0.638-0.835,0.778-1.316
			c0.142-0.481,0.323-1.237,0.547-2.267l3.424-15.86v17.184c0,0.95,0.184,1.664,0.553,2.14c0.369,0.475,0.84,0.713,1.414,0.713
			c0.611,0,1.099-0.238,1.464-0.713c0.364-0.476,0.546-1.189,0.546-2.14V14.995c0-1.086-0.243-1.819-0.729-2.199
			c-0.486-0.379-1.142-0.568-1.967-0.568h-1.34c-0.806,0-1.392,0.084-1.756,0.254s-0.634,0.475-0.809,0.917
			c-0.175,0.442-0.374,1.162-0.597,2.157l-3.104,13.634l-3.103-13.634c-0.224-0.996-0.423-1.715-0.598-2.157
			c-0.174-0.441-0.443-0.746-0.809-0.917c-0.363-0.17-0.949-0.254-1.755-0.254h-1.341c-0.825,0-1.48,0.189-1.966,0.568
			c-0.485,0.38-0.729,1.113-0.729,2.199v19.697c0,0.962,0.184,1.678,0.553,2.148c0.369,0.469,0.846,0.704,1.428,0.704
			c0.603,0,1.086-0.238,1.45-0.713c0.364-0.476,0.546-1.189,0.546-2.14V17.507l3.424,15.86
			C153.45,33.888,153.564,34.389,153.676,34.87z"/>
	</g>
</g>
</svg>
